<svg width="190" height="50" viewBox="0 0 190 50" fill="none" xmlns="http://www.w3.org/2000/svg">
<g clip-path="url(#clip0_132_452)">
<path fill-rule="evenodd" clip-rule="evenodd" d="M26.6185 30.3569C24.961 30.5436 23.2693 30.6063 21.5433 30.5449C21.5738 30.1639 21.5424 29.7879 21.4494 29.4171C20.0926 25.6169 17.3984 23.6118 13.3666 23.402C8.92371 23.8046 6.32347 26.1857 5.56589 30.5449C3.81151 30.5449 2.05712 30.5449 0.302734 30.5449C0.302734 30.4823 0.302734 30.4195 0.302734 30.3569C3.83018 21.1868 7.30762 11.9763 10.7351 2.72532C11.6599 2.60239 12.5998 2.53961 13.5546 2.53735C14.5414 2.54299 15.4812 2.66818 16.3742 2.91329C19.8087 12.0584 23.2236 21.2062 26.6185 30.3569Z" fill="#BF2230"/>
<path fill-rule="evenodd" clip-rule="evenodd" d="M45.416 30.7331C43.8496 30.7331 42.2831 30.7331 40.7167 30.7331C40.7729 30.3376 40.7103 29.9617 40.5288 29.6053C40.4147 29.6286 40.3521 29.6912 40.3408 29.7933C35.0391 32.0878 30.8098 30.8346 27.6528 26.0339C25.4564 21.0976 26.4902 16.9936 30.7543 13.7218C33.9034 11.9536 37.0989 11.8596 40.3408 13.4399C40.3521 13.5419 40.4147 13.6045 40.5288 13.6278C40.7167 9.99589 40.7793 6.36186 40.7167 2.72559C42.2831 2.72559 43.8496 2.72559 45.416 2.72559C45.416 12.0615 45.416 21.3972 45.416 30.7331Z" fill="#BF202F"/>
<path fill-rule="evenodd" clip-rule="evenodd" d="M45.6037 30.7328C45.5411 30.7328 45.4784 30.7328 45.4158 30.7328C45.4158 21.3969 45.4158 12.0612 45.4158 2.72532C43.8494 2.72532 42.2829 2.72532 40.7165 2.72532C40.7791 6.3616 40.7165 9.99562 40.5285 13.6276C40.4144 13.6043 40.3519 13.5417 40.3406 13.4396C40.528 9.83829 40.5906 6.20408 40.5285 2.53735C42.2203 2.53735 43.912 2.53735 45.6037 2.53735C45.6037 11.9358 45.6037 21.3343 45.6037 30.7328Z" fill="#D05A66"/>
<path fill-rule="evenodd" clip-rule="evenodd" d="M101.807 5.1687C103.436 5.1687 105.065 5.1687 106.694 5.1687C106.694 7.54972 106.694 9.93054 106.694 12.3116C108.386 12.3116 110.078 12.3116 111.769 12.3116C111.769 13.8153 111.769 15.3191 111.769 16.8228C110.078 16.8228 108.386 16.8228 106.694 16.8228C106.694 21.5221 106.694 26.2213 106.694 30.9206C105.065 30.9206 103.436 30.9206 101.807 30.9206C101.807 22.3366 101.807 13.7527 101.807 5.1687Z" fill="#BF202F"/>
<path fill-rule="evenodd" clip-rule="evenodd" d="M101.807 5.16952C103.464 4.98287 105.156 4.92009 106.882 4.98155C106.882 7.36257 106.882 9.74339 106.882 12.1244C108.574 12.1244 110.266 12.1244 111.957 12.1244C111.957 13.7535 111.957 15.3825 111.957 17.0116C110.266 17.0116 108.574 17.0116 106.882 17.0116C106.882 21.7109 106.882 26.4101 106.882 31.1094C105.156 31.1708 103.464 31.1081 101.807 30.9214C103.436 30.9214 105.065 30.9214 106.694 30.9214C106.694 26.2222 106.694 21.5229 106.694 16.8237C108.386 16.8237 110.078 16.8237 111.769 16.8237C111.769 15.3199 111.769 13.8161 111.769 12.3124C110.078 12.3124 108.386 12.3124 106.694 12.3124C106.694 9.93136 106.694 7.55054 106.694 5.16952C105.065 5.16952 103.436 5.16952 101.807 5.16952Z" fill="#DF8D95"/>
<path fill-rule="evenodd" clip-rule="evenodd" d="M116.468 5.16885C118.266 4.89273 119.55 5.58201 120.322 7.23652C120.357 9.83182 119.073 10.991 116.468 10.714C114.827 9.79874 114.294 8.45175 114.871 6.67261C115.276 6.01923 115.809 5.51791 116.468 5.16885Z" fill="#C02432"/>
<path fill-rule="evenodd" clip-rule="evenodd" d="M141.656 5.16901C144.647 5.05605 145.806 6.43462 145.133 9.30435C144.034 10.8551 142.624 11.1997 140.904 10.3382C139.7 9.15567 139.481 7.80849 140.246 6.29683C140.644 5.80417 141.114 5.42823 141.656 5.16901Z" fill="#C02331"/>
<path fill-rule="evenodd" clip-rule="evenodd" d="M13.461 8.55273C13.765 8.85743 13.9843 9.23337 14.1189 9.68055C15.3849 13.1339 16.6693 16.58 17.9723 20.0189C17.9096 20.0815 17.847 20.1443 17.7843 20.2069C15.7095 19.5138 13.5792 19.2945 11.3933 19.549C10.6592 19.6633 9.97003 19.8826 9.32567 20.2069C9.26301 20.1443 9.20035 20.0815 9.1377 20.0189C10.5434 16.1768 11.9845 12.3548 13.461 8.55273Z" fill="#FDF7F8"/>
<path fill-rule="evenodd" clip-rule="evenodd" d="M148.423 12.3123C150.081 12.1257 151.773 12.0629 153.499 12.1244C153.499 12.4377 153.499 12.7509 153.499 13.0642C153.323 12.8635 153.26 12.6129 153.311 12.3123C151.681 12.3123 150.052 12.3123 148.423 12.3123Z" fill="#D2616B"/>
<path fill-rule="evenodd" clip-rule="evenodd" d="M176.619 12.1237C182.17 11.5609 185.899 13.8792 187.803 19.0786C188.559 25.4378 185.834 29.2912 179.626 30.6387C174.633 30.7901 171.343 28.503 169.758 23.7778C168.807 17.9705 171.094 14.0857 176.619 12.1237Z" fill="#BF2230"/>
<path fill-rule="evenodd" clip-rule="evenodd" d="M114.965 12.1243C116.657 12.1243 118.348 12.1243 120.04 12.1243C120.04 18.4527 120.04 24.7808 120.04 31.1092C118.348 31.1092 116.657 31.1092 114.965 31.1092C114.965 24.7808 114.965 18.4527 114.965 12.1243Z" fill="#D36570"/>
<path fill-rule="evenodd" clip-rule="evenodd" d="M115.153 12.3118C116.719 12.3118 118.285 12.3118 119.852 12.3118C119.852 18.5148 119.852 24.7178 119.852 30.9208C118.285 30.9208 116.719 30.9208 115.153 30.9208C115.153 24.7178 115.153 18.5148 115.153 12.3118Z" fill="#BE1E2D"/>
<path fill-rule="evenodd" clip-rule="evenodd" d="M123.611 26.5981C123.611 26.2848 123.611 25.9716 123.611 25.6583C125.178 25.6583 126.744 25.6583 128.311 25.6583C128.592 27.3974 129.594 28.0553 131.318 27.632C132.575 27.1468 132.982 26.2384 132.54 24.9064C132.247 24.557 131.903 24.275 131.506 24.0605C129.343 23.5669 127.275 22.815 125.303 21.8049C123.71 20.2897 123.177 18.4414 123.705 16.2598C124.532 14.2432 126.004 12.9587 128.123 12.4064C129.886 12.253 131.64 12.3156 133.386 12.5944C136.015 13.44 137.268 15.2258 137.145 17.9515C135.516 17.9515 133.887 17.9515 132.258 17.9515C132.007 16.2244 131.004 15.5665 129.251 15.9778C128.392 16.4555 128.11 17.1761 128.405 18.1395C128.534 18.6462 128.816 19.0536 129.251 19.3613C130.911 20.0115 132.602 20.5754 134.326 21.053C137.665 22.6765 138.448 25.1515 136.675 28.4778C135.722 29.8167 134.438 30.6626 132.822 31.0154C129.571 31.9808 126.783 31.2603 124.457 28.8538C124.015 28.1577 123.733 27.4058 123.611 26.5981Z" fill="#C02230"/>
<path fill-rule="evenodd" clip-rule="evenodd" d="M145.04 12.3123C143.473 12.3123 141.907 12.3123 140.341 12.3123C140.341 18.5153 140.341 24.7183 140.341 30.9213C141.907 30.9213 143.473 30.9213 145.04 30.9213C143.445 31.1079 141.816 31.1705 140.153 31.1093C140.153 24.7809 140.153 18.4527 140.153 12.1243C141.816 12.063 143.445 12.1256 145.04 12.3123Z" fill="#C8404A"/>
<path fill-rule="evenodd" clip-rule="evenodd" d="M145.04 12.3118C145.04 18.5148 145.04 24.7178 145.04 30.9208C143.473 30.9208 141.907 30.9208 140.341 30.9208C140.341 24.7178 140.341 18.5148 140.341 12.3118C141.907 12.3118 143.473 12.3118 145.04 12.3118Z" fill="#BF1E2E"/>
<path fill-rule="evenodd" clip-rule="evenodd" d="M148.423 12.3119C150.052 12.3119 151.681 12.3119 153.311 12.3119C153.26 12.6124 153.323 12.863 153.499 13.0637C157.781 11.3288 161.509 12.1432 164.683 15.5073C165.561 16.6994 166.187 18.0152 166.562 19.4547C166.656 23.3389 166.688 27.2237 166.656 31.1088C165.027 31.1088 163.398 31.1088 161.769 31.1088C161.801 27.6622 161.769 24.216 161.675 20.7705C160.638 18.0853 158.727 17.1141 155.942 17.857C154.692 18.4799 153.846 19.4511 153.405 20.7705C153.311 24.216 153.279 27.6622 153.311 31.1088C151.681 31.1088 150.052 31.1088 148.423 31.1088C148.423 24.8432 148.423 18.5775 148.423 12.3119Z" fill="#BF202F"/>
<path fill-rule="evenodd" clip-rule="evenodd" d="M47.4834 12.3117C49.2847 12.2519 51.0704 12.3145 52.8405 12.4997C54.3208 16.6585 55.8558 20.7938 57.4458 24.9057C59.0321 20.7925 60.5672 16.6572 62.0511 12.4997C63.8255 12.2521 65.6112 12.2521 67.4082 12.4997C64.7249 18.5555 62.0934 24.6331 59.5135 30.7327C58.0928 30.9795 56.683 30.9795 55.2842 30.7327C52.7011 24.5801 50.1009 18.4399 47.4834 12.3117Z" fill="#C02331"/>
<path fill-rule="evenodd" clip-rule="evenodd" d="M74.1751 12.4998C80.0441 11.937 83.8347 14.4432 85.5473 20.0186C85.6411 20.9563 85.6725 21.8962 85.6413 22.8381C81.0674 22.8381 76.4934 22.8381 71.9195 22.8381C72.6467 25.3953 74.3385 26.5545 76.9947 26.3156C78.2208 26.1413 79.2232 25.5774 80.0022 24.6238C81.6928 24.5298 83.3845 24.4986 85.0774 24.5298C83.3926 29.1355 80.0717 31.2971 75.115 31.0148C70.6977 30.1063 68.0347 27.4434 67.1262 23.0261C66.8161 17.7297 69.1657 14.2208 74.1751 12.4998Z" fill="#BF2230"/>
<path fill-rule="evenodd" clip-rule="evenodd" d="M92.4082 21.1466C92.2208 24.372 92.1582 27.63 92.2203 30.921C90.7165 30.921 89.2127 30.921 87.709 30.921C87.709 24.7806 87.709 18.6404 87.709 12.5C89.2127 12.5 90.7165 12.5 92.2203 12.5C92.1699 12.8005 92.2327 13.0511 92.4082 13.2518C93.2319 12.8417 94.1092 12.5597 95.0398 12.406C96.3541 12.312 97.6699 12.2808 98.9872 12.312C98.9872 14.0663 98.9872 15.8208 98.9872 17.5751C96.621 17.0584 94.6473 17.6849 93.0661 19.4548C92.7389 19.9829 92.5195 20.5468 92.4082 21.1466Z" fill="#BF1E2E"/>
<path fill-rule="evenodd" clip-rule="evenodd" d="M92.4085 13.2516C92.2329 13.0509 92.1701 12.8003 92.2205 12.4997C90.7167 12.4997 89.213 12.4997 87.7092 12.4997C87.7092 18.6402 87.7092 24.7804 87.7092 30.9208C89.213 30.9208 90.7167 30.9208 92.2205 30.9208C92.1585 27.6298 92.2211 24.3717 92.4085 21.1464C92.4085 24.4672 92.4085 27.7879 92.4085 31.1088C90.7793 31.1088 89.1504 31.1088 87.5212 31.1088C87.5212 24.8432 87.5212 18.5774 87.5212 12.3118C89.1504 12.3118 90.7793 12.3118 92.4085 12.3118C92.4085 12.6251 92.4085 12.9383 92.4085 13.2516Z" fill="#C73B47"/>
<path fill-rule="evenodd" clip-rule="evenodd" d="M177.747 16.635C180.478 16.4799 182.326 17.6703 183.292 20.2064C183.49 24.2299 181.578 26.141 177.559 25.9395C174.235 24.4262 173.327 22.0139 174.833 18.7027C175.609 17.7068 176.58 17.0175 177.747 16.635Z" fill="#FEFBFB"/>
<path fill-rule="evenodd" clip-rule="evenodd" d="M34.3253 17.0113C37.2918 16.5072 39.3281 17.635 40.4343 20.3948C40.6479 24.442 38.7368 26.3529 34.7012 26.1279C31.9067 25.0192 30.8103 22.9829 31.4118 20.0189C32.0424 18.6679 33.0136 17.6653 34.3253 17.0113Z" fill="#FEFBFB"/>
<path fill-rule="evenodd" clip-rule="evenodd" d="M80.5663 20.0191C79.1892 20.1443 77.7795 20.2071 76.337 20.2071C74.8588 20.2065 73.449 20.0813 72.1077 19.8312C73.2353 17.5763 75.0522 16.7304 77.5588 17.2936C79.0767 17.6532 80.0793 18.5616 80.5663 20.0191Z" fill="#FEFBFB"/>
<path fill-rule="evenodd" clip-rule="evenodd" d="M72.1076 19.8313C73.449 20.0815 74.8588 20.2067 76.3369 20.2072C77.7794 20.2072 79.1892 20.1445 80.5663 20.0193C80.6683 20.0305 80.7309 20.0931 80.7542 20.2072C77.8121 20.395 74.8672 20.4578 71.9197 20.3952C71.8751 20.1525 71.9377 19.9646 72.1076 19.8313Z" fill="#ECBDC1"/>
<path fill-rule="evenodd" clip-rule="evenodd" d="M128.311 25.658C126.744 25.658 125.178 25.658 123.611 25.658C123.611 25.9713 123.611 26.2845 123.611 26.5978C123.431 26.2661 123.368 25.8901 123.423 25.47C125.087 25.4087 126.716 25.4713 128.311 25.658Z" fill="#D46973"/>
<path fill-rule="evenodd" clip-rule="evenodd" d="M26.6186 30.3572C26.7207 30.3685 26.7833 30.431 26.8066 30.5451C25.0224 30.7936 23.2681 30.7936 21.5435 30.5451C23.2694 30.6066 24.9611 30.5438 26.6186 30.3572Z" fill="#EAB7BC"/>
<path fill-rule="evenodd" clip-rule="evenodd" d="M40.3406 29.7934C40.3519 29.6914 40.4144 29.6288 40.5285 29.6055C40.7101 29.9619 40.7727 30.3378 40.7165 30.7333C42.2829 30.7333 43.8494 30.7333 45.4158 30.7333C45.4784 30.7333 45.5411 30.7333 45.6037 30.7333C43.9462 30.9199 42.2545 30.9827 40.5285 30.9213C40.584 30.5011 40.5212 30.1252 40.3406 29.7934Z" fill="#E7AAAF"/>
<path fill-rule="evenodd" clip-rule="evenodd" d="M188.273 31.1095C188.273 31.2349 188.273 31.3601 188.273 31.4855C186.583 36.1227 183.262 38.5037 178.31 38.6283C173.461 38.3026 170.391 35.7964 169.1 31.1095C170.796 31.0471 172.488 31.1099 174.175 31.2975C174.496 32.0888 174.997 32.7467 175.679 33.2712C178.736 34.9044 181.117 34.2153 182.822 31.2035C184.638 31.1095 186.455 31.0783 188.273 31.1095Z" fill="#C02230"/>
<path fill-rule="evenodd" clip-rule="evenodd" d="M101.619 32.4252C103.256 32.3382 103.913 33.0901 103.593 34.6809C103.115 35.5397 102.394 35.8217 101.431 35.5267C100.147 34.3995 100.21 33.3656 101.619 32.4252Z" fill="#0F1111"/>
<path fill-rule="evenodd" clip-rule="evenodd" d="M120.04 32.4246C120.04 33.8029 120.04 35.1815 120.04 36.5599C120.98 36.5599 121.92 36.5599 122.86 36.5599C122.86 37.3744 122.86 38.189 122.86 39.0035C121.92 39.0035 120.98 39.0035 120.04 39.0035C120.04 41.6977 120.04 44.392 120.04 47.0862C119.1 47.0862 118.16 47.0862 117.22 47.0862C117.22 42.199 117.22 37.3118 117.22 32.4246C118.16 32.4246 119.1 32.4246 120.04 32.4246Z" fill="#0D0F0F"/>
<path fill-rule="evenodd" clip-rule="evenodd" d="M120.04 32.4246C120.226 33.7052 120.289 35.021 120.228 36.3719C121.168 36.3719 122.107 36.3719 123.047 36.3719C123.047 37.3118 123.047 38.2516 123.047 39.1915C122.107 39.1915 121.168 39.1915 120.228 39.1915C120.29 41.8563 120.227 44.4879 120.04 47.0862C120.04 44.392 120.04 41.6977 120.04 39.0035C120.98 39.0035 121.919 39.0035 122.859 39.0035C122.859 38.189 122.859 37.3744 122.859 36.5599C121.919 36.5599 120.98 36.5599 120.04 36.5599C120.04 35.1815 120.04 33.8029 120.04 32.4246Z" fill="#919292"/>
<path fill-rule="evenodd" clip-rule="evenodd" d="M90.7165 36.7481C89.74 36.6878 88.8001 36.7506 87.897 36.9361C87.7949 36.9248 87.7323 36.8622 87.709 36.7481C88.7402 36.5009 89.7428 36.5009 90.7165 36.7481Z" fill="#898A8A"/>
<path fill-rule="evenodd" clip-rule="evenodd" d="M95.9797 36.7481C96.9534 36.5009 97.9561 36.5009 98.9873 36.7481C98.9639 36.8622 98.9014 36.9248 98.7993 36.9361C97.8961 36.7506 96.9562 36.6878 95.9797 36.7481Z" fill="#8A8B8B"/>
<path fill-rule="evenodd" clip-rule="evenodd" d="M103.499 47.0868C103.499 43.578 103.499 40.0694 103.499 36.5605C102.621 36.5605 101.744 36.5605 100.867 36.5605C100.867 40.0694 100.867 43.578 100.867 47.0868C100.68 43.5481 100.617 39.9767 100.679 36.3726C101.682 36.3726 102.684 36.3726 103.687 36.3726C103.749 39.9767 103.686 43.5481 103.499 47.0868Z" fill="#7D7F7F"/>
<path fill-rule="evenodd" clip-rule="evenodd" d="M103.499 47.0864C102.621 47.0864 101.744 47.0864 100.867 47.0864C100.867 43.5775 100.867 40.0689 100.867 36.5601C101.744 36.5601 102.621 36.5601 103.499 36.5601C103.499 40.0689 103.499 43.5775 103.499 47.0864Z" fill="#040707"/>
<path fill-rule="evenodd" clip-rule="evenodd" d="M124.363 36.3723C125.41 36.2697 126.412 36.395 127.371 36.7482C130.716 35.8368 133.066 36.9646 134.42 40.1317C134.514 42.4492 134.545 44.7674 134.514 47.0866C133.574 47.0866 132.634 47.0866 131.694 47.0866C131.725 44.9554 131.694 42.8249 131.6 40.6956C129.906 38.8439 128.402 38.9691 127.089 41.0715C126.995 43.0755 126.963 45.0806 126.995 47.0866C126.118 47.0866 125.241 47.0866 124.363 47.0866C124.363 43.5152 124.363 39.9437 124.363 36.3723Z" fill="#090C0C"/>
<path fill-rule="evenodd" clip-rule="evenodd" d="M146.544 36.3726C146.544 39.8814 146.544 43.39 146.544 46.8989C145.792 46.8989 145.04 46.8989 144.288 46.8989C144.329 46.678 144.266 46.49 144.1 46.335C143.986 46.3583 143.923 46.4209 143.912 46.5229C140.094 47.8564 137.557 46.6034 136.299 42.7635C136.048 39.1615 137.708 37.0938 141.28 36.5605C142.26 36.5633 143.168 36.8139 144.006 37.3124C144.099 37.0053 144.13 36.6919 144.1 36.3726C144.914 36.3726 145.729 36.3726 146.544 36.3726Z" fill="#090C0C"/>
<path fill-rule="evenodd" clip-rule="evenodd" d="M146.544 36.3726C146.731 39.9113 146.794 43.4827 146.732 47.0868C145.854 47.0868 144.977 47.0868 144.1 47.0868C144.145 46.8442 144.082 46.6562 143.912 46.5229C143.923 46.4209 143.986 46.3583 144.1 46.335C144.267 46.49 144.329 46.678 144.288 46.8989C145.04 46.8989 145.792 46.8989 146.544 46.8989C146.544 43.39 146.544 39.8814 146.544 36.3726Z" fill="#242727"/>
<path fill-rule="evenodd" clip-rule="evenodd" d="M148.799 36.3724C149.907 36.2682 150.972 36.3934 151.995 36.7483C154.127 36.0079 156.038 36.3838 157.728 37.8761C160.339 35.8325 162.908 35.8951 165.434 38.0641C165.892 38.7096 166.268 39.3987 166.562 40.1318C166.656 42.4493 166.688 44.7675 166.656 47.0867C165.716 47.0867 164.777 47.0867 163.837 47.0867C163.868 45.0181 163.837 42.9504 163.743 40.8837C162.828 39.4299 161.607 39.0853 160.077 39.8498C159.679 40.1752 159.397 40.5825 159.231 41.0716C159.137 43.0756 159.106 45.0806 159.137 47.0867C158.198 47.0867 157.258 47.0867 156.318 47.0867C156.349 45.0181 156.318 42.9504 156.224 40.8837C155.331 39.3558 154.109 39.0113 152.558 39.8498C152.161 40.1752 151.879 40.5825 151.713 41.0716C151.619 43.0756 151.587 45.0806 151.619 47.0867C150.679 47.0867 149.739 47.0867 148.799 47.0867C148.799 43.5152 148.799 39.9438 148.799 36.3724Z" fill="#0B0E0E"/>
<path fill-rule="evenodd" clip-rule="evenodd" d="M90.7165 36.748C91.5534 39.0061 92.4306 41.2617 93.3481 43.5149C94.2346 41.2443 95.1118 38.9886 95.9797 36.748C96.9562 36.6877 97.896 36.7505 98.7992 36.936C97.4126 40.2738 95.9716 43.5946 94.4759 46.8984C93.6836 47.1424 92.9004 47.1424 92.1263 46.8984C90.7137 43.5726 89.3039 40.252 87.897 36.936C88.8002 36.7505 89.74 36.6877 90.7165 36.748Z" fill="#0B0E0E"/>
<path fill-rule="evenodd" clip-rule="evenodd" d="M112.521 43.5153C113.497 43.455 114.437 43.5178 115.34 43.7033C114.084 46.2747 112.016 47.3712 109.137 46.9928C106.25 45.8871 104.965 43.7883 105.284 40.6958C106.272 37.7661 108.308 36.4191 111.393 36.6544C114.362 37.4253 115.803 39.3362 115.716 42.3875C113.147 42.3875 110.579 42.3875 108.01 42.3875C108.476 43.9997 109.541 44.6576 111.205 44.3612C111.713 44.171 112.152 43.889 112.521 43.5153Z" fill="#0A0D0D"/>
<path fill-rule="evenodd" clip-rule="evenodd" d="M109.701 39.1918C111.285 39.0099 112.35 39.6366 112.897 41.0715C111.263 41.1338 109.634 41.0712 108.01 40.8836C108.395 40.1225 108.959 39.5586 109.701 39.1918Z" fill="#F1F2F2"/>
<path fill-rule="evenodd" clip-rule="evenodd" d="M140.717 39.1917C143.594 39.2759 144.565 40.6542 143.63 43.327C142.169 44.8037 140.728 44.8037 139.307 43.327C138.442 41.4866 138.912 40.108 140.717 39.1917Z" fill="#F8F8F8"/>
<path fill-rule="evenodd" clip-rule="evenodd" d="M112.521 43.5152C113.495 43.268 114.498 43.268 115.529 43.5152C115.505 43.6293 115.443 43.6919 115.341 43.7032C114.438 43.5177 113.498 43.4549 112.521 43.5152Z" fill="#6A6C6C"/>
</g>
<defs>
<clipPath id="clip0_132_452">
<rect width="189.286" height="50" fill="white" transform="translate(0.396973)"/>
</clipPath>
</defs>
</svg>
