<svg width="209" height="50" viewBox="0 0 209 50" fill="none" xmlns="http://www.w3.org/2000/svg">
<g clip-path="url(#clip0_132_600)">
<path fill-rule="evenodd" clip-rule="evenodd" d="M0.832275 25V50H25.6727H50.5131V25V0H25.6727H0.832275V25ZM93.2791 13.1915V15.5319H97.694H102.109V27.2872V39.0426H104.662H107.215V27.2872V15.5319H111.63H116.045V13.1915V10.8511H104.662H93.2791V13.1915ZM125.194 24.9468V39.0426H135.034H144.875V36.7021V34.3617H137.534H130.194V22.6064V10.8511H127.694H125.194V24.9468ZM153.917 24.9468V39.0426H164.343H174.768V36.7553V34.4681H166.577H158.385V30.7979V27.1277H164.662H170.939V24.8404V22.5532H164.662H158.385V18.9894V15.4255H166.577H174.768V13.1383V10.8511H164.343H153.917V24.9468ZM184.662 24.9468V39.0426H187.162H189.662V34.1489V29.2553L192.721 29.2611L195.779 29.2669L199.19 34.1281L202.601 38.9894L205.559 39.0177C207.934 39.0404 208.506 39.019 208.463 38.909C208.434 38.8338 206.859 36.595 204.963 33.9339C203.066 31.273 201.406 28.94 201.273 28.7496C201.045 28.4243 201.042 28.3994 201.224 28.3376C201.813 28.1372 203.161 27.5235 203.685 27.2161C204.017 27.0212 204.725 26.4296 205.257 25.9013C206.044 25.1202 206.307 24.7726 206.667 24.0396C207.374 22.601 207.563 21.7177 207.563 19.8404C207.563 17.9755 207.373 17.0732 206.689 15.6915C205.356 12.9957 202.616 11.3531 198.802 10.9617C198.182 10.898 194.954 10.8511 191.193 10.8511H184.662V24.9468ZM33.9379 24.8404C37.256 32.4468 39.9956 38.7301 40.0259 38.8032C40.069 38.9074 39.5354 38.9356 37.5577 38.9339L35.0344 38.9317L30.3632 27.8967C27.7941 21.8274 25.66 16.8245 25.6209 16.7789C25.5819 16.7335 23.4275 21.7002 20.8336 27.8162L16.1172 38.9362H13.6929H11.2687L11.4132 38.5904C11.7838 37.7043 23.3104 11.3105 23.3998 11.1433C23.4933 10.9686 23.6808 10.9555 25.7033 10.9819L27.905 11.0106L33.9379 24.8404ZM59.7684 25V39.0426H62.2147H64.661L64.6881 29.2082L64.7153 19.3738L72.3216 29.2071L79.928 39.0404L82.0823 39.0415L84.2365 39.0426V25V10.9574H81.7371H79.2377L79.2105 20.5322L79.1833 30.107L71.7897 20.5378L64.3961 10.9685L62.0823 10.963L59.7684 10.9574V25ZM198.705 15.6826C200.242 16.0091 201.518 16.9059 202.051 18.0332C203.116 20.2834 202.287 22.8648 200.132 24.0089C198.852 24.6883 198.659 24.7118 193.944 24.7591L189.662 24.8022V20.1671V15.5319L193.838 15.5337C196.979 15.5351 198.184 15.572 198.705 15.6826Z" fill="#ED4746"/>
</g>
<defs>
<clipPath id="clip0_132_600">
<rect width="207.66" height="50" fill="white" transform="translate(0.832275)"/>
</clipPath>
</defs>
</svg>
