<svg width="84" height="50" viewBox="0 0 84 50" fill="none" xmlns="http://www.w3.org/2000/svg">
<path fill-rule="evenodd" clip-rule="evenodd" d="M21.8877 13.6205C21.8947 13.6838 21.9335 13.7227 22.0044 13.7372C22.1586 12.7072 22.1586 11.6958 22.0044 10.7026C21.9262 8.93058 21.0315 7.82181 19.32 7.37631C17.5131 7.09176 15.7236 7.16949 13.9512 7.60974C12.9626 7.95848 11.9705 8.28913 10.975 8.6018C10.7196 8.61884 10.564 8.50213 10.5081 8.25166C10.4303 7.55138 10.4303 6.8511 10.5081 6.15082C10.5997 5.94237 10.7358 5.7673 10.9166 5.62561C14.5633 3.74688 18.337 3.4356 22.2378 4.6919C24.2275 5.65374 25.4142 7.22937 25.7976 9.41879C25.9479 13.0718 26.0256 16.7289 26.031 20.3898C26.2505 21.4571 26.6202 22.4685 27.1398 23.4244C27.0884 23.7412 26.9327 23.994 26.6729 24.183C26.1282 24.5332 25.5836 24.8833 25.0389 25.2335C24.7666 25.3113 24.4942 25.3113 24.2219 25.2335C23.8134 24.9805 23.4828 24.6499 23.2299 24.2414C22.9186 23.6967 22.6074 23.1521 22.2962 22.6074C19.7732 25.3735 16.6803 26.3267 13.0174 25.4669C10.3014 24.3799 8.97858 22.3569 9.04919 19.3978C9.21481 16.6946 10.5376 14.7883 13.0174 13.6788C14.2712 13.1635 15.5744 12.9496 16.9273 13.0369C18.6001 13.0726 20.2536 13.2671 21.8877 13.6205Z" fill="#24303F"/>
<path fill-rule="evenodd" clip-rule="evenodd" d="M64.6048 3.93331C66.9835 3.79839 69.2789 4.16791 71.4909 5.04209C71.8605 5.25603 72.1523 5.54781 72.3662 5.91744C72.4441 6.57886 72.4441 7.24015 72.3662 7.90157C72.1718 8.23759 71.88 8.33481 71.4909 8.19335C69.0043 7.02318 66.4366 6.78976 63.7878 7.49307C62.4561 8.19183 62.0088 9.26175 62.4456 10.7027C62.609 11.0997 62.8619 11.4305 63.2043 11.6948C63.7941 12.0675 64.4167 12.3788 65.0717 12.6285C66.925 13.1813 68.7535 13.8039 70.5572 14.4959C73.5532 16.3268 74.3508 18.875 72.9498 22.1406C71.5163 24.4232 69.435 25.6487 66.7057 25.8171C63.8601 26.1194 61.1757 25.6135 58.6524 24.2998C58.4404 24.0897 58.3042 23.8369 58.2439 23.5412C58.1661 22.8797 58.1661 22.2184 58.2439 21.557C58.455 21.3357 58.7079 21.2774 59.0026 21.382C61.3001 22.4562 63.7122 22.8841 66.2388 22.6658C67.719 22.6366 68.8277 21.9947 69.5651 20.74C70.0253 18.9038 69.3445 17.7172 67.5226 17.1803C65.8442 16.6537 64.1713 16.109 62.504 15.5463C59.0992 14.0471 57.8737 11.4989 58.8275 7.90157C60.1084 5.6371 62.0342 4.31427 64.6048 3.93331Z" fill="#24303F"/>
<path fill-rule="evenodd" clip-rule="evenodd" d="M28.4236 4.51678C29.4747 4.49741 30.5251 4.51678 31.5748 4.57514C31.9444 4.71134 32.1972 4.96415 32.3334 5.33378C33.6758 10.5477 35.018 15.7608 36.3601 20.9734C37.6371 15.7224 38.9016 10.4703 40.1532 5.21706C40.2894 4.92528 40.5034 4.71134 40.7952 4.57514C41.8067 4.49729 42.8182 4.49729 43.8297 4.57514C44.4356 4.90847 44.7662 5.43368 44.8218 6.15077C45.99 11.1735 47.1765 16.1922 48.3815 21.2068C49.7847 15.9231 51.1657 10.6321 52.5249 5.33378C52.6611 4.96415 52.9139 4.71134 53.2835 4.57514C54.3458 4.4652 55.3962 4.50406 56.4348 4.69185C56.5634 4.97208 56.5829 5.26387 56.4931 5.5672C54.4932 11.9948 52.4701 18.4141 50.424 24.8249C50.2139 25.037 49.9611 25.1732 49.6654 25.2334C48.6928 25.3113 47.7201 25.3113 46.7475 25.2334C46.5391 25.1418 46.364 25.0057 46.2223 24.8249C44.8999 19.6146 43.577 14.4014 42.2541 9.18532C40.9923 14.2715 39.7473 19.368 38.5193 24.4748C38.4057 24.9306 38.1139 25.1836 37.6439 25.2334C36.6713 25.3113 35.6986 25.3113 34.7261 25.2334C34.4414 25.1431 34.2274 24.968 34.0841 24.7082C32.1567 18.36 30.2115 12.0187 28.2485 5.68392C28.1361 5.25803 28.1944 4.86902 28.4236 4.51678Z" fill="#24303F"/>
<path fill-rule="evenodd" clip-rule="evenodd" d="M22.0044 10.7026C22.1586 11.6958 22.1586 12.7072 22.0044 13.7372C21.9336 13.7227 21.8947 13.6838 21.8877 13.6205C22.0036 12.6693 22.0425 11.6967 22.0044 10.7026Z" fill="#B3B7BC"/>
<path fill-rule="evenodd" clip-rule="evenodd" d="M16.052 15.838C18.0967 15.7447 20.1197 15.9003 22.1211 16.3048C22.5499 19.5863 21.1883 21.6677 18.0361 22.549C14.5369 23.3277 12.9224 21.9466 13.1925 18.4057C13.6927 17.0294 14.6459 16.1734 16.052 15.838Z" fill="#FDFDFD"/>
<path fill-rule="evenodd" clip-rule="evenodd" d="M69.8569 30.3104C71.5008 30.2614 73.1348 30.3586 74.7589 30.6022C75.3424 30.6896 75.8871 30.8842 76.3929 31.1858C76.5049 31.3514 76.6021 31.5265 76.6846 31.711C76.7558 35.9724 75.3359 39.6489 72.4246 42.7404C72.1555 42.99 71.8442 43.1651 71.4909 43.2656C71.2186 43.2267 71.0629 43.071 71.024 42.7987C71.7856 40.9228 72.4664 39.0165 73.0665 37.0798C73.3778 35.9934 73.4167 34.9041 73.1832 33.8118C72.6925 33.4146 72.1284 33.2007 71.4909 33.1699C69.0117 33.0472 66.5412 33.1446 64.0796 33.4617C63.3324 33.3757 63.2351 33.0449 63.7878 32.4696C65.6663 31.3184 67.6894 30.5987 69.8569 30.3104Z" fill="#FF9A09"/>
<path fill-rule="evenodd" clip-rule="evenodd" d="M6.48156 31.3609C6.67985 31.3422 6.87442 31.3616 7.06513 31.4192C23.6276 40.9658 41.1734 43.339 59.7029 38.5387C62.7649 37.6737 65.7606 36.6232 68.6898 35.3875C69.9408 35.16 70.4272 35.6462 70.1487 36.8464C68.5294 38.25 66.7592 39.4365 64.8382 40.4062C53.0535 46.3033 40.7596 47.665 27.9568 44.4911C19.7156 42.2278 12.4987 38.2012 6.30649 32.4113C6.04984 32.0002 6.10819 31.6501 6.48156 31.3609Z" fill="#FF9904"/>
</svg>
