<svg width="145" height="50" viewBox="0 0 145 50" fill="none" xmlns="http://www.w3.org/2000/svg">
<g clip-path="url(#clip0_132_619)">
<path fill-rule="evenodd" clip-rule="evenodd" d="M136.977 5.62848C136.977 5.67717 136.977 5.726 136.977 5.77468C135.22 5.7586 133.465 5.80728 131.713 5.92088C132.025 5.80187 132.366 5.72877 132.737 5.70158C134.149 5.62848 135.563 5.60421 136.977 5.62848Z" fill="#5E5E5E"/>
<path fill-rule="evenodd" clip-rule="evenodd" d="M72.5033 14.9854C72.5522 15.3784 72.4548 15.7195 72.2109 16.0088C69.8298 17.6256 67.515 19.3313 65.2665 21.1258C66.0016 23.8683 66.8301 26.5974 67.7519 29.3129C68.0403 30.3892 67.6748 30.7547 66.6554 30.4094C64.3672 28.6065 62.0036 26.9252 59.5647 25.3655C59.3269 25.3838 59.1076 25.4569 58.9068 25.5848C56.6253 27.356 54.2861 29.0373 51.8893 30.6287C51.4664 30.5226 51.2226 30.2544 51.1583 29.8246C52.0105 27.1706 52.8633 24.5147 53.7168 21.8568C53.8143 21.5644 53.8143 21.272 53.7168 20.9796C51.2878 19.2816 48.8998 17.5272 46.553 15.7164C46.4221 15.3473 46.4952 15.0304 46.7723 14.7661C49.7938 14.7174 52.8152 14.6686 55.8367 14.6199C55.9585 14.4981 56.0804 14.3762 56.2022 14.2544C57.0788 11.5269 57.956 8.79799 58.8338 6.06729C59.4449 5.4398 59.9321 5.53717 60.2957 6.35968C61.1345 9.16904 62.0848 11.9224 63.1466 14.6199C66.2168 14.6686 69.287 14.7174 72.3571 14.7661C72.4384 14.8221 72.4871 14.8952 72.5033 14.9854Z" fill="#CC0602"/>
<path fill-rule="evenodd" clip-rule="evenodd" d="M136.977 5.77497C137.657 5.84777 138.339 5.89646 139.024 5.92117C140.186 6.18769 141.355 6.5045 142.532 6.87146C143.118 7.06693 143.654 7.33491 144.141 7.67555C144.141 9.47862 144.141 11.2818 144.141 13.0849C142.094 13.0849 140.047 13.0849 138 13.0849C137.777 12.0557 137.119 11.5682 136.027 11.6229C134.859 11.4764 134.322 11.9637 134.418 13.0849C134.792 13.528 135.255 13.8449 135.807 14.0352C138.165 14.7067 140.407 15.6327 142.532 16.813C144.034 17.9472 144.96 19.4336 145.31 21.272C145.31 22.0517 145.31 22.8315 145.31 23.6112C144.801 26.8758 142.949 28.9957 139.755 29.9709C137.296 30.583 134.811 30.7536 132.298 30.4826C131.601 30.2795 130.87 30.182 130.105 30.1902C128.973 30.0412 127.852 29.8219 126.743 29.5323C126.198 29.4089 125.71 29.1896 125.281 28.8744C125.281 26.8763 125.281 24.8783 125.281 22.8802C127.523 22.8802 129.764 22.8802 132.006 22.8802C132.075 24.07 132.709 24.6548 133.907 24.6346C134.897 24.7266 135.53 24.3124 135.807 23.3919C135.575 22.7697 135.136 22.3311 134.491 22.0761C131.936 21.3707 129.548 20.2987 127.328 18.8598C125.971 17.6811 125.166 16.1947 124.915 14.4007C124.459 9.37628 126.725 6.54982 131.714 5.92117C133.466 5.80757 135.22 5.75889 136.977 5.77497Z" fill="#222222"/>
<path fill-rule="evenodd" clip-rule="evenodd" d="M136.977 5.77477C136.977 5.72609 136.977 5.67726 136.977 5.62857C137.695 5.6084 138.378 5.70577 139.024 5.92097C138.339 5.89626 137.657 5.84758 136.977 5.77477Z" fill="#BEBEBE"/>
<path fill-rule="evenodd" clip-rule="evenodd" d="M-0.888916 6.06747C4.25298 6.01893 9.36994 6.06776 14.462 6.21367C9.39373 6.21367 4.32551 6.21367 -0.742717 6.21367C-0.742717 7.82185 -0.742717 9.43004 -0.742717 11.0382C-0.224903 10.9925 0.262426 11.0413 0.719271 11.1844C0.670543 11.1844 0.621805 11.1844 0.573072 11.1844C0.0857434 11.1844 -0.401587 11.1844 -0.888916 11.1844C-0.888916 9.47873 -0.888916 7.77317 -0.888916 6.06747Z" fill="#545454"/>
<path fill-rule="evenodd" clip-rule="evenodd" d="M83.4682 6.21361C79.7646 6.21361 76.0608 6.21361 72.3571 6.21361C72.3571 7.82179 72.3571 9.42998 72.3571 11.0382C72.8444 11.0382 73.3318 11.0382 73.8191 11.0382C73.8677 15.7415 73.8188 20.4199 73.6729 25.0733C73.6729 20.4436 73.6729 15.814 73.6729 11.1844C73.1856 11.1844 72.6982 11.1844 72.2109 11.1844C72.2109 9.47866 72.2109 7.77311 72.2109 6.06741C75.9886 6.01901 79.7409 6.0677 83.4682 6.21361Z" fill="#676767"/>
<path fill-rule="evenodd" clip-rule="evenodd" d="M114.609 6.21367C110.028 6.21367 105.447 6.21367 100.866 6.21367C100.866 7.87054 100.866 9.52756 100.866 11.1844C100.817 11.1844 100.768 11.1844 100.72 11.1844C100.72 9.47873 100.72 7.77317 100.72 6.06747C105.374 6.01893 110.004 6.06776 114.609 6.21367Z" fill="#5D5D5D"/>
<path fill-rule="evenodd" clip-rule="evenodd" d="M14.4622 6.21338C15.5057 6.25738 16.5291 6.42785 17.5324 6.72507C19.2789 7.25344 20.5216 8.34993 21.2605 10.0145C22.0156 12.6208 21.4064 14.8381 19.433 16.6666C18.4348 17.2632 17.4114 17.7749 16.3628 18.2017C17.2929 18.4466 18.219 18.7145 19.1406 19.0058C21.262 19.8352 22.2365 21.3947 22.0646 23.6841C22.2013 25.5662 21.5678 27.1255 20.164 28.3625C18.4542 29.3878 16.6023 29.9482 14.6084 30.0438C9.49149 30.0438 4.37453 30.0438 -0.742432 30.0438C-0.742432 28.4356 -0.742432 26.8274 -0.742432 25.2192C-0.224617 25.265 0.262712 25.2162 0.719557 25.073C0.719557 20.4433 0.719557 15.8138 0.719557 11.1841C0.262712 11.041 -0.224617 10.9922 -0.742432 11.0379C-0.742432 9.42975 -0.742432 7.82157 -0.742432 6.21338C4.3258 6.21338 9.39402 6.21338 14.4622 6.21338Z" fill="#212121"/>
<path fill-rule="evenodd" clip-rule="evenodd" d="M46.1872 25.0731C46.1872 26.73 46.1872 28.387 46.1872 30.0439C42.9708 30.0439 39.7544 30.0439 36.5381 30.0439C36.5863 27.338 36.5376 24.6578 36.3919 22.0029C36.3084 20.8964 35.7236 20.2629 34.6375 20.1024C34.0331 19.9583 33.3995 19.9097 32.7369 19.9562C32.6889 21.6879 32.7376 23.3936 32.8831 25.0731C33.4875 25.2171 34.1211 25.2658 34.7837 25.2193C34.7837 26.8275 34.7837 28.4357 34.7837 30.0439C30.7388 30.0439 26.6941 30.0439 22.6492 30.0439C22.6492 28.387 22.6492 26.73 22.6492 25.0731C23.1853 25.0731 23.7212 25.0731 24.2574 25.0731C24.2574 20.4434 24.2574 15.8139 24.2574 11.1842C23.7212 11.1842 23.1853 11.1842 22.6492 11.1842C22.6492 9.47852 22.6492 7.77297 22.6492 6.06726C27.9126 6.04285 33.1758 6.06726 38.4386 6.14036C43.5873 6.71332 45.756 9.56419 44.9445 14.693C44.634 16.2665 43.8299 17.5092 42.5322 18.4211C42.3093 18.5686 42.0655 18.6417 41.8012 18.6404C41.8012 18.7866 41.8012 18.9328 41.8012 19.079C43.3603 19.2366 44.3593 20.0651 44.7983 21.5643C44.8714 22.7329 44.8957 23.9025 44.8714 25.0731C45.31 25.0731 45.7486 25.0731 46.1872 25.0731Z" fill="#212121"/>
<path fill-rule="evenodd" clip-rule="evenodd" d="M98.6729 11.1846C98.5269 17.4463 98.4782 23.7328 98.5267 30.0442C95.6514 30.0442 92.7763 30.0442 89.901 30.0442C86.977 25.5608 84.053 21.0774 81.1291 16.5939C81.0877 16.4786 81.0146 16.3811 80.9098 16.3015C80.7886 19.2505 80.813 22.1745 80.9829 25.0735C81.4215 25.0735 81.8601 25.0735 82.2987 25.0735C82.2987 26.7303 82.2987 28.3874 82.2987 30.0442C78.9361 30.0442 75.5735 30.0442 72.2109 30.0442C72.2109 28.3874 72.2109 26.7303 72.2109 25.0735C72.6982 25.0735 73.1856 25.0735 73.6729 25.0735C73.8188 20.4201 73.8677 15.7418 73.8191 11.0384C73.3318 11.0384 72.8444 11.0384 72.3571 11.0384C72.3571 9.4302 72.3571 7.82201 72.3571 6.21383C76.0608 6.21383 79.7646 6.21383 83.4682 6.21383C86.1362 10.2337 88.7678 14.2786 91.363 18.3483C91.3718 18.4277 91.4204 18.4764 91.5092 18.4945C91.7032 16.0341 91.7032 13.5976 91.5092 11.1846C91.0219 11.1846 90.5345 11.1846 90.0472 11.1846C90.0472 9.47888 90.0472 7.77333 90.0472 6.06763C93.4098 6.06763 96.7723 6.06763 100.135 6.06763C100.135 7.77333 100.135 9.47888 100.135 11.1846C99.6476 11.1846 99.1602 11.1846 98.6729 11.1846Z" fill="#212121"/>
<path fill-rule="evenodd" clip-rule="evenodd" d="M114.608 6.21338C120.498 6.60885 123.788 9.72771 124.477 15.5701C124.854 18.7922 124.464 21.911 123.307 24.9268C121.825 27.6248 119.559 29.2574 116.509 29.8245C115.781 29.9338 115.05 30.0069 114.316 30.0438C109.833 30.0438 105.349 30.0438 100.866 30.0438C100.866 28.3869 100.866 26.7299 100.866 25.073C101.353 25.073 101.84 25.073 102.328 25.073C102.328 20.4433 102.328 15.8138 102.328 11.1841C101.84 11.1841 101.353 11.1841 100.866 11.1841C100.866 9.52727 100.866 7.87025 100.866 6.21338C105.447 6.21338 110.028 6.21338 114.608 6.21338Z" fill="#212121"/>
<path fill-rule="evenodd" clip-rule="evenodd" d="M-0.888916 11.1843C-0.401587 11.1843 0.0857434 11.1843 0.573072 11.1843C0.573072 15.7652 0.573072 20.3462 0.573072 24.927C0.0857434 24.927 -0.401587 24.927 -0.888916 24.927C-0.888916 20.3462 -0.888916 15.7652 -0.888916 11.1843Z" fill="#FEFEFE"/>
<path fill-rule="evenodd" clip-rule="evenodd" d="M0.573072 11.1843C0.621805 11.1843 0.670543 11.1843 0.719271 11.1843C0.719271 15.814 0.719271 20.4435 0.719271 25.0732C0.183208 25.0732 -0.352853 25.0732 -0.888916 25.0732C-0.888916 25.0245 -0.888916 24.9757 -0.888916 24.927C-0.401587 24.927 0.0857433 24.927 0.573072 24.927C0.573072 20.3462 0.573072 15.7652 0.573072 11.1843Z" fill="#CBCBCB"/>
<path fill-rule="evenodd" clip-rule="evenodd" d="M9.49121 11.1844C12.4613 10.7696 13.5578 12.0366 12.7807 14.9856C12.5741 15.6066 12.1599 15.9965 11.538 16.1551C10.8557 16.1551 10.1735 16.1551 9.49121 16.1551C9.49121 14.4983 9.49121 12.8413 9.49121 11.1844Z" fill="#FBFBFB"/>
<path fill-rule="evenodd" clip-rule="evenodd" d="M32.8833 11.1845C35.7817 10.6472 36.9269 11.8168 36.319 14.6932C36.2368 15.1862 36.0175 15.6004 35.6611 15.9359C34.7485 16.1362 33.8226 16.2093 32.8833 16.1552C32.8833 14.4983 32.8833 12.8413 32.8833 11.1845Z" fill="#FAFAFA"/>
<path fill-rule="evenodd" clip-rule="evenodd" d="M91.5092 11.1843C91.7032 13.5973 91.7032 16.0339 91.5092 18.4943C91.4205 18.4761 91.3718 18.4275 91.363 18.3481C91.5087 15.9858 91.5575 13.5979 91.5092 11.1843Z" fill="#454545"/>
<path fill-rule="evenodd" clip-rule="evenodd" d="M98.6728 11.1843C98.6728 17.5196 98.6728 23.8549 98.6728 30.1902C95.7234 30.2384 92.7994 30.1897 89.9009 30.044C92.7762 30.044 95.6513 30.044 98.5266 30.044C98.4781 23.7326 98.5268 17.446 98.6728 11.1843Z" fill="#565656"/>
<path fill-rule="evenodd" clip-rule="evenodd" d="M111.099 11.1843C111.099 15.7652 111.099 20.3462 111.099 24.927C111.928 24.927 112.756 24.927 113.585 24.927C112.735 25.0718 111.858 25.1204 110.953 25.0732C110.905 20.4185 110.954 15.789 111.099 11.1843Z" fill="#B4B4B4"/>
<path fill-rule="evenodd" clip-rule="evenodd" d="M111.1 11.1839C111.93 11.1596 112.758 11.184 113.585 11.257C114.194 11.4763 114.609 11.8905 114.828 12.4997C114.925 16.1546 114.925 19.8096 114.828 23.4646C114.717 24.2305 114.302 24.7179 113.585 24.9266C112.757 24.9266 111.928 24.9266 111.1 24.9266C111.1 20.3457 111.1 15.7647 111.1 11.1839Z" fill="#FCFCFC"/>
<path fill-rule="evenodd" clip-rule="evenodd" d="M9.49121 11.1843C9.49121 12.8412 9.49121 14.4982 9.49121 16.1551C10.1735 16.1551 10.8557 16.1551 11.538 16.1551C10.8354 16.2994 10.1045 16.3482 9.34501 16.3013C9.29701 14.5696 9.34575 12.8639 9.49121 11.1843Z" fill="#B0B0B0"/>
<path fill-rule="evenodd" clip-rule="evenodd" d="M100.72 11.1843C100.768 11.1843 100.817 11.1843 100.866 11.1843C101.353 11.1843 101.841 11.1843 102.328 11.1843C102.328 15.814 102.328 20.4435 102.328 25.0732C101.841 25.0732 101.353 25.0732 100.866 25.0732C100.817 25.0732 100.768 25.0732 100.72 25.0732C101.177 24.9301 101.664 24.8813 102.182 24.927C102.182 20.3949 102.182 15.8627 102.182 11.3305C101.664 11.3763 101.177 11.3275 100.72 11.1843Z" fill="#DCDCDC"/>
<path fill-rule="evenodd" clip-rule="evenodd" d="M144.14 7.67554C144.286 9.50141 144.335 11.3533 144.287 13.2311C142.165 13.2792 140.07 13.2305 138 13.0849C140.047 13.0849 142.094 13.0849 144.14 13.0849C144.14 11.2818 144.14 9.47861 144.14 7.67554Z" fill="#878787"/>
<path fill-rule="evenodd" clip-rule="evenodd" d="M72.5033 14.9856C72.6674 15.247 72.6918 15.5394 72.5764 15.8628C72.4783 15.9727 72.3566 16.0216 72.2109 16.009C72.4548 15.7197 72.5522 15.3786 72.5033 14.9856Z" fill="#F4B3B0"/>
<path fill-rule="evenodd" clip-rule="evenodd" d="M81.129 16.5934C80.9832 19.3944 80.9345 22.2211 80.9828 25.073C80.8129 22.174 80.7885 19.25 80.9097 16.301C81.0145 16.3806 81.0876 16.4781 81.129 16.5934Z" fill="#B6B6B6"/>
<path fill-rule="evenodd" clip-rule="evenodd" d="M9.49122 19.8101C9.49122 21.5158 9.49122 23.2213 9.49122 24.927C10.2709 24.927 11.0507 24.927 11.8304 24.927C11.0299 25.0716 10.2015 25.1203 9.34502 25.0732C9.29701 23.2928 9.34574 21.5384 9.49122 19.8101Z" fill="#C5C5C5"/>
<path fill-rule="evenodd" clip-rule="evenodd" d="M9.49121 19.8103C10.3697 19.7861 11.2469 19.8105 12.1228 19.8834C12.4883 20.0541 12.7563 20.322 12.9269 20.6875C13.0244 21.7596 13.0244 22.8318 12.9269 23.9039C12.7672 24.4782 12.4017 24.8193 11.8304 24.9273C11.0507 24.9273 10.2709 24.9273 9.49121 24.9273C9.49121 23.2216 9.49121 21.516 9.49121 19.8103Z" fill="#FDFDFD"/>
<path fill-rule="evenodd" clip-rule="evenodd" d="M34.6377 20.1019C34.0529 20.1019 33.4681 20.1019 32.8833 20.1019C32.8833 21.7588 32.8833 23.4158 32.8833 25.0727C32.7378 23.3932 32.6891 21.6875 32.7371 19.9558C33.3997 19.9093 34.0333 19.9579 34.6377 20.1019Z" fill="#545454"/>
<path fill-rule="evenodd" clip-rule="evenodd" d="M132.006 22.88C129.765 22.88 127.523 22.88 125.281 22.88C125.281 24.8781 125.281 26.8761 125.281 28.8742C125.135 26.8533 125.087 24.8065 125.135 22.7338C127.451 22.6856 129.741 22.7344 132.006 22.88Z" fill="#5E5E5E"/>
<path fill-rule="evenodd" clip-rule="evenodd" d="M-0.888916 25.0732C-0.352853 25.0732 0.183208 25.0732 0.719271 25.0732C0.262426 25.2164 -0.224903 25.2652 -0.742717 25.2194C-0.742717 26.8276 -0.742717 28.4358 -0.742717 30.044C4.37424 30.044 9.4912 30.044 14.6082 30.044C9.46741 30.1899 4.30171 30.2387 -0.888916 30.1902C-0.888916 28.4845 -0.888916 26.7789 -0.888916 25.0732Z" fill="#606060"/>
<path fill-rule="evenodd" clip-rule="evenodd" d="M32.8831 25.0732C33.5654 25.0732 34.2476 25.0732 34.9299 25.0732C34.9299 26.7789 34.9299 28.4845 34.9299 30.1902C30.8112 30.2386 26.7176 30.1899 22.6492 30.044C26.6941 30.044 30.7388 30.044 34.7837 30.044C34.7837 28.4358 34.7837 26.8276 34.7837 25.2194C34.1211 25.2659 33.4875 25.2172 32.8831 25.0732Z" fill="#5C5C5C"/>
<path fill-rule="evenodd" clip-rule="evenodd" d="M36.3921 22.0032C36.5379 24.658 36.5865 27.3383 36.5383 30.0441C39.7547 30.0441 42.971 30.0441 46.1874 30.0441C46.1874 28.3872 46.1874 26.7302 46.1874 25.0733C46.3329 26.7529 46.3816 28.4586 46.3336 30.1903C43.0197 30.1903 39.706 30.1903 36.3921 30.1903C36.3921 27.4612 36.3921 24.7323 36.3921 22.0032Z" fill="#727272"/>
<path fill-rule="evenodd" clip-rule="evenodd" d="M82.2987 25.0732C82.4441 26.7528 82.4928 28.4585 82.4449 30.1902C79.0083 30.2386 75.597 30.1899 72.2109 30.044C75.5735 30.044 78.9361 30.044 82.2987 30.044C82.2987 28.3871 82.2987 26.7301 82.2987 25.0732Z" fill="#6F6F6F"/>
<path fill-rule="evenodd" clip-rule="evenodd" d="M100.72 25.0732C100.768 25.0732 100.817 25.0732 100.866 25.0732C100.866 26.7301 100.866 28.3871 100.866 30.044C105.349 30.044 109.833 30.044 114.316 30.044C109.809 30.1899 105.277 30.2386 100.72 30.1902C100.72 28.4845 100.72 26.7789 100.72 25.0732Z" fill="#696969"/>
<path fill-rule="evenodd" clip-rule="evenodd" d="M130.105 30.1899C130.87 30.1817 131.601 30.2793 132.298 30.4823C131.534 30.4905 130.803 30.393 130.105 30.1899Z" fill="#5E5E5E"/>
<path fill-rule="evenodd" clip-rule="evenodd" d="M72.2109 33.1142C73.2602 32.9214 74.3323 32.9214 75.4273 33.1142C76.2944 35.2527 77.1473 37.397 77.9858 39.547C78.863 37.4027 79.7402 35.2585 80.6174 33.1142C81.6523 32.971 82.7 32.9223 83.7606 32.968C82.25 36.6717 80.7392 40.3755 79.2285 44.0792C78.4 44.0792 77.5716 44.0792 76.7431 44.0792C75.3734 40.3582 73.8627 36.7033 72.2109 33.1142Z" fill="#606060"/>
<path fill-rule="evenodd" clip-rule="evenodd" d="M84.7834 32.9678C85.7582 32.9678 86.7327 32.9678 87.7074 32.9678C87.7074 36.6714 87.7074 40.3752 87.7074 44.0789C86.7327 44.0789 85.7582 44.0789 84.7834 44.0789C84.7834 40.3752 84.7834 36.6714 84.7834 32.9678Z" fill="#616161"/>
<path fill-rule="evenodd" clip-rule="evenodd" d="M89.9009 32.9678C91.9477 32.9678 93.9944 32.9678 96.0412 32.9678C96.0412 33.7475 96.0412 34.5273 96.0412 35.307C94.8933 35.2594 93.7725 35.3081 92.6787 35.4532C92.6787 36.0379 92.6787 36.6227 92.6787 37.2075C93.7507 37.2075 94.823 37.2075 95.895 37.2075C95.895 38.036 95.895 38.8644 95.895 39.6929C94.823 39.6929 93.7507 39.6929 92.6787 39.6929C92.6787 40.3264 92.6787 40.96 92.6787 41.5935C93.7996 41.5935 94.9203 41.5935 96.0412 41.5935C96.0412 42.3732 96.0412 43.153 96.0412 43.9327C93.9944 43.9327 91.9477 43.9327 89.9009 43.9327C89.9009 40.2777 89.9009 36.6227 89.9009 32.9678Z" fill="#5F5F5F"/>
<path fill-rule="evenodd" clip-rule="evenodd" d="M104.521 32.9678C104.521 33.7475 104.521 34.5273 104.521 35.307C103.761 35.26 103.03 35.3089 102.328 35.4532C102.328 38.3284 102.328 41.2036 102.328 44.0789C101.353 44.0789 100.378 44.0789 99.4036 44.0789C99.4036 41.2036 99.4036 38.3284 99.4036 35.4532C98.624 35.4532 97.8441 35.4532 97.0645 35.4532C97.0645 34.6246 97.0645 33.7963 97.0645 32.9678C99.5498 32.9678 102.035 32.9678 104.521 32.9678Z" fill="#606060"/>
<path fill-rule="evenodd" clip-rule="evenodd" d="M108.76 37.5002C108.752 37.4209 108.703 37.3722 108.614 37.354C108.468 39.5937 108.419 41.8353 108.468 44.0792C107.542 44.0792 106.616 44.0792 105.69 44.0792C105.69 40.3755 105.69 36.6717 105.69 32.9681C106.666 32.9438 107.641 32.9681 108.614 33.0412C110.344 35.2586 112.074 37.4758 113.804 39.6932C113.877 37.452 113.902 35.2103 113.877 32.9681C114.852 32.9681 115.827 32.9681 116.801 32.9681C116.801 36.6717 116.801 40.3755 116.801 44.0792C115.773 44.1274 114.75 44.0788 113.731 43.933C112.073 41.7843 110.416 39.6402 108.76 37.5002Z" fill="#606060"/>
<path fill-rule="evenodd" clip-rule="evenodd" d="M121.918 32.9676C123.027 32.9217 124.124 32.9704 125.208 33.1138C126.556 36.7363 127.945 40.3425 129.374 43.9325C128.306 44.0783 127.234 44.1271 126.158 44.0787C126.042 43.4384 125.896 42.8048 125.719 42.1782C124.305 42.1539 122.892 42.1782 121.479 42.2513C121.155 42.8113 120.96 43.4206 120.895 44.0787C119.871 44.0787 118.848 44.0787 117.824 44.0787C119.106 40.3464 120.47 36.6426 121.918 32.9676Z" fill="#616161"/>
<path fill-rule="evenodd" clip-rule="evenodd" d="M131.86 32.9675C132.888 32.9192 133.911 32.9679 134.93 33.1137C135.677 34.9493 136.384 36.8012 137.05 38.6692C137.841 36.796 138.547 34.8954 139.17 32.9675C140.193 32.9675 141.217 32.9675 142.24 32.9675C142.801 36.6758 143.386 40.3795 143.994 44.0786C143.02 44.0786 142.045 44.0786 141.07 44.0786C140.885 41.9675 140.592 39.8719 140.193 37.792C139.318 39.8344 138.441 41.8812 137.562 43.9324C137.184 44.0757 136.794 44.1243 136.392 44.0786C135.672 41.9553 134.868 39.8599 133.98 37.792C133.579 39.8757 133.262 41.9713 133.029 44.0786C132.055 44.0786 131.08 44.0786 130.105 44.0786C130.754 40.3812 131.339 36.6776 131.86 32.9675Z" fill="#606060"/>
<path fill-rule="evenodd" clip-rule="evenodd" d="M96.0413 32.9678C96.1859 33.7682 96.2346 34.5967 96.1875 35.4532C95.0179 35.4532 93.8483 35.4532 92.6787 35.4532C93.7726 35.3081 94.8933 35.2594 96.0413 35.307C96.0413 34.5273 96.0413 33.7475 96.0413 32.9678Z" fill="#8F8F8F"/>
<path fill-rule="evenodd" clip-rule="evenodd" d="M104.521 32.9678C104.665 33.7682 104.714 34.5967 104.667 35.4532C103.887 35.4532 103.107 35.4532 102.328 35.4532C103.03 35.3089 103.761 35.26 104.521 35.307C104.521 34.5273 104.521 33.7475 104.521 32.9678Z" fill="#858585"/>
<path fill-rule="evenodd" clip-rule="evenodd" d="M124.696 39.6929C123.916 39.8878 123.136 39.8878 122.357 39.6929C122.66 38.5875 123.05 37.5155 123.526 36.4766C124.058 37.4865 124.448 38.5586 124.696 39.6929Z" fill="#F5F5F5"/>
<path fill-rule="evenodd" clip-rule="evenodd" d="M108.76 37.4997C108.663 39.6927 108.565 41.8857 108.468 44.0787C108.419 41.8348 108.468 39.5931 108.614 37.3535C108.703 37.3716 108.751 37.4203 108.76 37.4997Z" fill="#A8A8A8"/>
<path fill-rule="evenodd" clip-rule="evenodd" d="M122.357 39.6931C123.137 39.888 123.917 39.888 124.696 39.6931C124.776 39.7019 124.824 39.7506 124.843 39.8393C123.965 40.0342 123.088 40.0342 122.211 39.8393C122.229 39.7506 122.278 39.7019 122.357 39.6931Z" fill="#B0B0B0"/>
<path fill-rule="evenodd" clip-rule="evenodd" d="M89.9004 32.9678C89.9004 36.6227 89.9004 40.2777 89.9004 43.9327C91.9472 43.9327 93.9939 43.9327 96.0407 43.9327C96.0407 43.153 96.0407 42.3732 96.0407 41.5935C96.1853 42.3939 96.234 43.2225 96.1869 44.0789C94.0426 44.0789 91.8985 44.0789 89.7542 44.0789C89.7058 40.3501 89.7545 36.6463 89.9004 32.9678Z" fill="#808080"/>
</g>
<defs>
<clipPath id="clip0_132_619">
<rect width="144.444" height="50" fill="white" transform="translate(0.491943)"/>
</clipPath>
</defs>
</svg>
