<svg width="225" height="50" viewBox="0 0 225 50" fill="none" xmlns="http://www.w3.org/2000/svg">
<path opacity="0.95" fill-rule="evenodd" clip-rule="evenodd" d="M117.063 8.23706C118.797 8.23706 120.531 8.23706 122.266 8.23706C122.266 10.6455 122.266 13.054 122.266 15.4625C120.531 15.4625 118.797 15.4625 117.063 15.4625C117.063 13.054 117.063 10.6455 117.063 8.23706Z" fill="black"/>
<path opacity="0.9" fill-rule="evenodd" clip-rule="evenodd" d="M175.156 8.23706C176.986 8.23706 178.817 8.23706 180.647 8.23706C180.647 10.6455 180.647 13.054 180.647 15.4625C178.817 15.4625 176.986 15.4625 175.156 15.4625C175.156 13.054 175.156 10.6455 175.156 8.23706Z" fill="black"/>
<path opacity="0.941" fill-rule="evenodd" clip-rule="evenodd" d="M29.4039 5H10.5813C8.16316 5.8874 6.63287 7.57072 5.99048 10.0499V39.661C6.63914 42.146 8.16943 43.8293 10.5813 44.7109H31.9288C36.2011 43.7762 39.2999 41.3279 41.2253 37.3656C43.5054 30.4813 41.5543 25.2019 35.372 21.5271C36.0618 20.6074 36.6356 19.6128 37.0936 18.543C38.6859 11.6247 36.1228 7.11041 29.4039 5ZM17.6972 9.36132H12.1881C11.4853 9.43968 10.988 9.82226 10.6961 10.509C10.5431 20.0733 10.5431 29.6375 10.6961 39.2019C10.9107 39.7992 11.3316 40.1435 11.9586 40.2348C18.0798 40.388 24.2009 40.388 30.322 40.2348C34.2573 39.7427 36.6675 37.562 37.5526 33.6929C37.8577 29.2918 35.9066 26.4226 31.6993 25.085L22.9767 24.8555C20.0309 24.3581 18.3093 22.6365 17.8119 19.6908C17.6972 16.2485 17.6589 12.8053 17.6972 9.36132ZM28.9448 9.70563C26.7363 9.41048 24.5174 9.29571 22.288 9.36132C22.2498 12.7288 22.2881 16.0954 22.4028 19.4612L23.2062 20.2646L25.9607 20.3794C29.3075 20.8306 31.6412 19.5298 32.9618 16.4771C33.5354 13.0745 32.1965 10.8173 28.9448 9.70563ZM159.096 11.6568C157.745 11.2974 156.368 11.1444 154.964 11.1977C153.201 11.5639 151.785 12.482 150.717 13.9522C149.822 15.8387 149.478 17.8281 149.684 19.9203H140.732V11.6568H136.6V19.9203H132.928V23.8226H136.6C136.562 28.9496 136.6 34.076 136.715 39.202C136.882 39.7641 137.111 40.2999 137.404 40.8088C139.475 43.2302 142.038 43.9188 145.094 42.8746C145.322 41.737 145.398 40.5893 145.323 39.4315C144.326 39.4696 143.331 39.4313 142.339 39.3167C141.852 39.0592 141.431 38.7149 141.077 38.2838C140.743 33.4758 140.628 28.6554 140.732 23.8226H149.684V42.8746H154.046V23.8226H159.096V19.9203H154.046C153.494 15.9828 155.177 14.4525 159.096 15.3295V11.6568ZM62.6875 11.6568C67.7382 11.6186 72.7881 11.6568 77.8374 11.7716C84.2758 12.9036 86.6094 16.6146 84.8384 22.9044C84.271 23.9295 83.5443 24.8094 82.6578 25.5442C87.0728 27.9883 88.7179 31.6991 87.593 36.677C86.3472 40.2175 83.8606 42.245 80.1328 42.7599C74.3182 42.8747 68.5032 42.913 62.6875 42.8747V11.6568ZM67.2784 16.0181C70.9642 15.9175 74.6369 16.0323 78.2965 16.3624C80.9139 17.7898 81.4878 19.8174 80.018 22.4453C79.4653 23.0091 78.815 23.4299 78.0669 23.7078C74.484 24.0376 70.8877 24.1524 67.2784 24.0521V16.0181ZM67.2784 28.4134C71.4109 28.3751 75.5426 28.4134 79.6737 28.5282C82.6238 29.7223 83.7334 31.903 83.0021 35.0702C82.5047 36.7918 81.3953 37.9011 79.6737 38.3986C75.5426 38.5133 71.4109 38.5517 67.2784 38.5133V28.4134ZM129.714 11.6568H125.353V42.8747H129.714V11.6568ZM219.466 39.4315V42.8747C217.571 43.2688 215.658 43.3836 213.727 43.219C210.977 42.7636 209.255 41.1951 208.562 38.5133C208.447 33.617 208.409 28.7201 208.447 23.8226H204.775V19.9204H208.447V11.6568H212.579V19.9204H219.236V23.8226H212.579C212.478 28.5769 212.593 33.3209 212.924 38.0543C213.213 38.7264 213.71 39.1471 214.416 39.3167C216.097 39.4315 217.78 39.4696 219.466 39.4315ZM183.427 19.9204C182.39 19.5499 181.318 19.3969 180.214 19.4613C178.402 19.9285 176.833 20.8467 175.508 22.2158C175.394 21.4544 175.355 20.6893 175.393 19.9204H171.032V42.8747H175.393C175.355 38.1302 175.393 33.3863 175.508 28.643C175.605 27.8374 175.834 27.0723 176.197 26.3476C178.044 23.8553 180.53 22.8606 183.657 23.3635C183.732 22.2057 183.655 21.058 183.427 19.9204ZM191.92 19.4611C195.881 19.0833 199.133 20.384 201.676 23.3634C202.267 24.1039 202.611 24.9456 202.709 25.8883C201.468 26.122 200.244 26.428 199.036 26.8065C197.121 23.6042 194.366 22.6478 190.773 23.9372C189.265 24.8527 189.036 26.0004 190.084 27.3804C190.95 27.8897 191.868 28.2722 192.839 28.5281C195.928 29.0223 198.836 30.0171 201.561 31.5122C203.835 33.9664 204.18 36.6828 202.594 39.6609C200.236 42.2465 197.29 43.4709 193.757 43.3336C189.985 43.5207 186.963 42.1434 184.69 39.2018C183.847 37.7837 183.503 36.2534 183.657 34.611H187.559C187.93 37.1637 189.384 38.7322 191.92 39.3166C194.218 39.711 196.361 39.3283 198.348 38.1689C199.631 36.8573 199.554 35.6331 198.118 34.4962C197.448 34.1455 196.76 33.8395 196.052 33.578C193.564 33.0324 191.115 32.3438 188.707 31.5122C184.919 29.6363 183.962 26.767 185.837 22.9043C187.415 20.9491 189.442 19.8014 191.92 19.4611ZM95.2826 19.9203H90.9213C90.883 24.7413 90.9213 29.5618 91.0361 34.3815C91.0352 37.4016 92.221 39.8118 94.594 41.6121C98.9526 44.127 103.123 43.8593 107.104 40.8087C107.218 41.4932 107.257 42.1818 107.219 42.8746H111.58V19.9203H107.219C107.324 25.1354 107.209 30.3383 106.875 35.5292C106.322 37.2299 105.212 38.416 103.546 39.0871C99.7298 40.1816 97.0901 38.9191 95.6269 35.2997C95.2925 30.1855 95.1777 25.0589 95.2826 19.9203ZM116.171 19.9203H120.303V42.8746H116.171V19.9203ZM166.671 19.9203H162.309V42.8746H166.671V19.9203Z" fill="black"/>
</svg>
