<svg width="212" height="50" viewBox="0 0 212 50" fill="none" xmlns="http://www.w3.org/2000/svg">
<path d="M56.8582 33.7915H57.6302C58.378 33.7915 59.3609 33.6069 59.3609 32.4755C59.3609 31.4544 58.4232 31.3189 57.8249 31.3189H56.8587L56.8582 33.7915ZM56.8367 37.163H57.5613C58.5114 37.163 59.5669 36.9091 59.5669 35.789C59.5669 34.5312 58.4953 34.3999 57.4559 34.3999H56.8372L56.8367 37.163ZM56.1432 30.7083H57.8239C58.9708 30.7083 60.0544 31.0956 60.0544 32.4433C60.0544 33.3514 59.646 33.8861 58.7643 34.0583V34.0766C59.6632 34.2385 60.2663 34.826 60.2663 35.7594C60.2663 37.2905 59.0214 37.7677 57.5516 37.7677H56.1448V30.7083H56.1432Z" fill="#4F4E51"/>
<path d="M67.2892 36.5524C67.2892 36.9479 67.2892 37.3524 67.3398 37.7678H66.72V36.8516H66.692C66.4903 37.3169 66.1008 37.8807 65.0383 37.8807C63.7584 37.8807 63.2726 37.0339 63.2726 35.9058V32.6047H63.9042V35.7428C63.9042 36.7203 64.2506 37.3417 65.134 37.3417C66.2907 37.3417 66.6587 36.3227 66.6587 35.4582V32.6025H67.2908V36.5524H67.2892Z" fill="#4F4E51"/>
<path d="M70.0102 37.0195C70.396 37.219 70.8705 37.3396 71.367 37.3396C71.9707 37.3396 72.5113 37.0087 72.5113 36.4148C72.5113 35.2016 70.0194 35.3904 70.0194 33.89C70.0194 32.8694 70.8565 32.4885 71.7071 32.4885C71.9809 32.4885 72.5221 32.5477 72.9864 32.7258L72.9261 33.2772C72.5899 33.1277 72.1256 33.0416 71.7738 33.0416C71.1147 33.0416 70.6623 33.2342 70.6623 33.89C70.6623 34.8557 73.2161 34.7373 73.2161 36.4148C73.2161 37.5155 72.1778 37.8818 71.4009 37.8818C70.9092 37.8818 70.4121 37.8254 69.9602 37.6489L70.0102 37.0195Z" fill="#4F4E51"/>
<path d="M75.8599 32.6047H76.485V37.7678H75.8599V32.6047ZM76.485 31.2334H75.8599V30.3828H76.485V31.2334Z" fill="#4F4E51"/>
<path d="M79.6247 33.8282C79.6247 33.4268 79.6247 33.0196 79.5913 32.6048H80.1885V33.5296H80.2283C80.4343 33.0642 80.8147 32.488 81.8874 32.488C83.1662 32.488 83.6472 33.3429 83.6472 34.4721V37.77H83.0048V34.6351C83.0048 33.6625 82.6637 33.0416 81.7863 33.0416C80.6199 33.0416 80.2552 34.0606 80.2552 34.923V37.77H79.6236V33.8287L79.6247 33.8282Z" fill="#4F4E51"/>
<path d="M89.9104 34.8255C89.9104 33.9206 89.5527 33.0416 88.5978 33.0416C87.6606 33.0416 87.0785 33.9701 87.0785 34.8255H89.9104ZM90.2284 37.6016C89.7759 37.7861 89.2003 37.8818 88.7312 37.8818C87.0107 37.8818 86.3732 36.7359 86.3732 35.1914C86.3732 33.6097 87.2501 32.4885 88.5579 32.4885C90.011 32.4885 90.6087 33.6608 90.6087 35.0504V35.3684H87.0785C87.0785 36.4648 87.6708 37.3439 88.7823 37.3439C89.2417 37.3439 89.9158 37.1534 90.2284 36.9619V37.6016Z" fill="#4F4E51"/>
<path d="M92.9431 37.0195C93.3283 37.219 93.7936 37.3396 94.2843 37.3396C94.8938 37.3396 95.435 37.0087 95.435 36.4148C95.435 35.2016 92.9555 35.3904 92.9555 33.89C92.9555 32.8694 93.7823 32.4885 94.6254 32.4885C94.9046 32.4885 95.4528 32.5477 95.9106 32.7258L95.8455 33.2772C95.5104 33.1277 95.0687 33.0416 94.7061 33.0416C94.0454 33.0416 93.5881 33.2342 93.5881 33.89C93.5881 34.8557 96.1242 34.7373 96.1242 36.4148C96.1242 37.5155 95.1074 37.8818 94.3257 37.8818C93.8286 37.8818 93.3369 37.8254 92.8839 37.6489L92.9431 37.0195Z" fill="#4F4E51"/>
<path d="M98.3961 37.0195C98.7765 37.219 99.2456 37.3396 99.7314 37.3396C100.346 37.3396 100.877 37.0087 100.877 36.4148C100.877 35.2016 98.4009 35.3904 98.4009 33.89C98.4009 32.8694 99.2332 32.4885 100.089 32.4885C100.363 32.4885 100.899 32.5477 101.357 32.7258L101.296 33.2772C100.955 33.1277 100.508 33.0416 100.161 33.0416C99.4958 33.0416 99.0325 33.2342 99.0325 33.89C99.0325 34.8557 101.585 34.7373 101.585 36.4148C101.585 37.5155 100.552 37.8818 99.7809 37.8818C99.2838 37.8818 98.7856 37.8254 98.3289 37.6489L98.3961 37.0195Z" fill="#4F4E51"/>
<path d="M108.575 30.7083H109.28V37.163H112.107V37.7677H108.575V30.7083Z" fill="#4F4E51"/>
<path d="M117.487 35.1672H117.291C116.201 35.1672 114.882 35.2839 114.882 36.4126C114.882 37.0915 115.363 37.3428 115.938 37.3428C117.442 37.3428 117.487 36.0414 117.487 35.4797V35.1672ZM117.543 36.9377H117.504C117.23 37.5526 116.509 37.8819 115.872 37.8819C114.414 37.8819 114.184 36.8946 114.184 36.4384C114.184 34.7034 116.017 34.6216 117.358 34.6216H117.487V34.3634C117.487 33.48 117.174 33.0416 116.307 33.0416C115.765 33.0416 115.258 33.1583 114.783 33.4639V32.8474C115.179 32.6499 115.839 32.4858 116.307 32.4858C117.576 32.4858 118.113 33.0626 118.113 34.4081V36.6811C118.113 37.0959 118.113 37.4106 118.168 37.7678H117.543V36.9377Z" fill="#4F4E51"/>
<path d="M126.442 37.7678H125.682L124.27 33.3057H124.253L122.844 37.7678H122.074L120.419 32.6047H121.119L122.471 37.0711H122.492L123.928 32.6047H124.699L126.057 37.0711H126.084L127.51 32.6047H128.139L126.442 37.7678Z" fill="#4F4E51"/>
<path d="M135.633 34.1051H136.114C137.158 34.1051 138.165 33.991 138.165 32.7144C138.165 31.8219 137.656 31.3194 136.762 31.3194H135.634V34.1051H135.633ZM134.935 30.7083H136.672C137.996 30.7083 138.857 31.3748 138.857 32.7144C138.857 34.0244 137.868 34.712 136.604 34.712H135.631V37.7677H134.933V30.7083H134.935Z" fill="#4F4E51"/>
<path d="M141.431 33.7647C141.431 33.1971 141.431 32.9884 141.398 32.6048H142.029V33.6092H142.047C142.277 33.0185 142.717 32.488 143.377 32.488C143.539 32.488 143.705 32.5149 143.824 32.5472V33.2154C143.69 33.1724 143.522 33.1589 143.354 33.1589C142.344 33.1589 142.075 34.2967 142.075 35.2167V37.7695H141.434V33.7647H141.431Z" fill="#4F4E51"/>
<path d="M149.214 35.1672H149.04C147.939 35.1672 146.621 35.2839 146.621 36.4126C146.621 37.0915 147.101 37.3428 147.693 37.3428C149.185 37.3428 149.213 36.0414 149.213 35.4797V35.1666L149.214 35.1672ZM149.287 36.9377H149.265C148.975 37.5526 148.271 37.8819 147.628 37.8819C146.153 37.8819 145.93 36.8946 145.93 36.4384C145.93 34.7034 147.768 34.6216 149.092 34.6216H149.216V34.3634C149.216 33.48 148.908 33.0416 148.054 33.0416C147.517 33.0416 147.009 33.1583 146.534 33.4639V32.8474C146.925 32.6499 147.602 32.4858 148.054 32.4858C149.321 32.4858 149.853 33.0626 149.853 34.4081V36.6811C149.853 37.0959 149.853 37.4106 149.915 37.7678H149.288V36.9377H149.287Z" fill="#4F4E51"/>
<path d="M156.243 33.3057C155.897 33.1438 155.489 33.0416 155.148 33.0416C153.907 33.0416 153.209 33.9352 153.209 35.1914C153.209 36.3556 153.918 37.3433 155.074 37.3433C155.483 37.3433 155.863 37.247 156.242 37.1163L156.309 37.7043C155.861 37.8625 155.454 37.8824 154.978 37.8824C153.313 37.8824 152.515 36.6197 152.515 35.1935C152.515 33.6097 153.525 32.4885 155.056 32.4885C155.672 32.4885 156.118 32.6322 156.308 32.6913L156.243 33.3057Z" fill="#4F4E51"/>
<path d="M161.125 33.1578H159.952V36.4885C159.952 36.9597 160.12 37.3412 160.634 37.3412C160.884 37.3412 161.041 37.2981 161.222 37.2217L161.26 37.7414C161.115 37.8081 160.801 37.8813 160.484 37.8813C159.35 37.8813 159.309 37.1158 159.309 36.1716V33.1572H158.299V32.6042H159.309V31.3647L159.952 31.1436V32.6047H161.125V33.1578Z" fill="#4F4E51"/>
<path d="M163.791 32.6047H164.422V37.7678H163.791V32.6047ZM164.421 31.2334H163.79V30.3828H164.421V31.2334Z" fill="#4F4E51"/>
<path d="M169.774 33.1578H168.601V36.4885C168.601 36.9597 168.774 37.3412 169.281 37.3412C169.527 37.3412 169.69 37.2981 169.87 37.2217L169.909 37.7414C169.757 37.8081 169.449 37.8813 169.137 37.8813C168.004 37.8813 167.964 37.1158 167.964 36.1716V33.1572H166.948V32.6042H167.964V31.3647L168.601 31.1436V32.6047H169.774V33.1578Z" fill="#4F4E51"/>
<path d="M172.427 32.6047H173.064V37.7678H172.427V32.6047ZM173.064 31.2334H172.428V30.3828H173.064V31.2334Z" fill="#4F4E51"/>
<path d="M178.204 37.3417C179.311 37.3417 179.92 36.3782 179.92 35.1914C179.92 33.9954 179.311 33.0394 178.204 33.0394C177.087 33.0394 176.507 33.9954 176.507 35.1914C176.507 36.3782 177.087 37.3417 178.204 37.3417ZM178.204 32.4858C179.875 32.4858 180.612 33.7829 180.612 35.1908C180.612 36.5912 179.876 37.8802 178.204 37.8802C176.534 37.8802 175.796 36.5912 175.796 35.1908C175.796 33.7851 176.534 32.4858 178.204 32.4858Z" fill="#4F4E51"/>
<path d="M183.322 33.8282C183.322 33.4268 183.322 33.0196 183.283 32.6048H183.915V33.5296H183.926C184.144 33.0642 184.529 32.488 185.598 32.488C186.877 32.488 187.357 33.3429 187.357 34.4721V37.77H186.72V34.6351C186.72 33.6625 186.386 33.0416 185.501 33.0416C184.335 33.0416 183.97 34.0606 183.97 34.923V37.77H183.324V33.8287L183.322 33.8282Z" fill="#4F4E51"/>
<path d="M193.619 34.8255C193.619 33.9206 193.245 33.0416 192.301 33.0416C191.356 33.0416 190.791 33.9701 190.791 34.8255H193.619ZM193.942 37.6016C193.483 37.7861 192.92 37.8818 192.433 37.8818C190.723 37.8818 190.092 36.7359 190.092 35.1914C190.092 33.6097 190.947 32.4885 192.259 32.4885C193.723 32.4885 194.305 33.6608 194.305 35.0504V35.3684H190.79C190.79 36.4648 191.366 37.3439 192.483 37.3439C192.946 37.3439 193.617 37.1534 193.941 36.9619V37.6021L193.942 37.6016Z" fill="#4F4E51"/>
<path d="M197.043 33.7647C197.043 33.1971 197.043 32.9884 197.004 32.6048H197.646V33.6092H197.664C197.899 33.0185 198.334 32.488 198.988 32.488C199.138 32.488 199.329 32.5149 199.435 32.5472V33.2154C199.295 33.1724 199.133 33.1589 198.966 33.1589C197.966 33.1589 197.68 34.2967 197.68 35.2167V37.7695H197.044V33.7647H197.043Z" fill="#4F4E51"/>
<path d="M201.541 37.0195C201.922 37.219 202.391 37.3396 202.872 37.3396C203.487 37.3396 204.028 37.0087 204.028 36.4148C204.028 35.2016 201.548 35.3904 201.548 33.89C201.548 32.8694 202.369 32.4885 203.225 32.4885C203.492 32.4885 204.044 32.5477 204.504 32.7258L204.448 33.2772C204.108 33.1277 203.654 33.0416 203.303 33.0416C202.638 33.0416 202.185 33.2342 202.185 33.89C202.185 34.8557 204.721 34.7373 204.721 36.4148C204.721 37.5155 203.711 37.8818 202.924 37.8818C202.432 37.8818 201.927 37.8254 201.481 37.6489L201.541 37.0195Z" fill="#4F4E51"/>
<path d="M58.7577 12.5981H56.1877V25.4184H58.7577V12.5981Z" fill="#25255C"/>
<path d="M60.8193 15.9577H63.1601V17.2446H63.1929C63.9757 16.1632 65.0092 15.7366 66.3052 15.7366C68.54 15.7366 69.5127 17.3043 69.5127 19.4455V25.4177H67.0535V20.3649C67.0535 19.2066 67.032 17.647 65.4568 17.647C63.6739 17.647 63.2935 19.5778 63.2935 20.7861V25.4182H60.8199L60.8193 15.9577Z" fill="#25255C"/>
<path d="M75.6236 23.7187C77.2613 23.7187 77.7912 21.9912 77.7912 20.6581C77.7912 19.3379 77.165 17.6465 75.5827 17.6465C73.9914 17.6465 73.5449 19.389 73.5449 20.6581C73.5459 21.9692 74.0086 23.7187 75.6236 23.7187ZM77.8864 24.3466H77.8423C77.1112 25.2627 76.1116 25.635 74.9485 25.635C72.0423 25.635 70.9824 23.2501 70.9824 20.6581C70.9824 18.0489 72.0444 15.7377 74.9485 15.7377C76.1772 15.7377 77.0326 16.1632 77.7686 17.0601H77.8138V11.6458H80.267V25.4188H77.8853V24.3466H77.8864Z" fill="#25255C"/>
<path d="M86.6804 23.7247C88.5628 23.7247 89.0545 22.0354 89.0545 20.4532C89.0545 19.0092 88.2943 17.6465 86.6804 17.6465C85.0777 17.6465 84.3046 19.042 84.3046 20.4532C84.3057 22.0144 84.8028 23.7247 86.6804 23.7247ZM86.6804 15.7361C89.4913 15.7361 91.6298 17.6314 91.6298 20.7474C91.6298 23.4637 89.8152 25.634 86.6804 25.634C83.553 25.634 81.7357 23.4637 81.7357 20.7474C81.7363 17.632 83.8871 15.7361 86.6804 15.7361Z" fill="#25255C"/>
<path d="M99.2235 17.9983C98.7926 17.7922 98.3181 17.647 97.5531 17.647C96.0386 17.647 95.0724 18.8585 95.0724 20.6355C95.0724 22.3823 95.8885 23.7192 97.6187 23.7192C98.3175 23.7192 99.0879 23.4653 99.5087 23.2775L99.6254 25.3235C98.905 25.5446 98.1685 25.6307 97.1566 25.6307C94.0556 25.6307 92.4971 23.5207 92.4971 20.6344C92.4971 17.902 94.1062 15.7366 97.0565 15.7366C98.0453 15.7366 98.7716 15.8458 99.4527 16.0502L99.2235 17.9983Z" fill="#25255C"/>
<path d="M100.793 11.6453H103.25V17.2446H103.289C103.905 16.3279 104.973 15.7367 106.257 15.7367C108.503 15.7367 109.471 17.3044 109.471 19.4455V25.4177H107.012V20.365C107.012 19.2067 107.001 17.647 105.415 17.647C103.638 17.647 103.252 19.5779 103.252 20.7862V25.4183H100.795V11.6453H100.793Z" fill="#25255C"/>
<path d="M111.603 15.9579H114.062V25.4184H111.603V15.9579ZM111.603 11.8821H114.062V14.2358H111.603V11.8821Z" fill="#25255C"/>
<path d="M116.201 15.9577H118.526V17.2446H118.558C119.335 16.1632 120.374 15.7366 121.659 15.7366C123.899 15.7366 124.878 17.3043 124.878 19.4455V25.4177H122.407V20.3649C122.407 19.2066 122.395 17.647 120.819 17.647C119.038 17.647 118.652 19.5778 118.652 20.7861V25.4182H116.2V15.9577H116.201Z" fill="#25255C"/>
<path d="M132.873 19.7564C132.8 18.5648 132.24 17.5394 130.872 17.5394C129.498 17.5394 128.805 18.4948 128.689 19.7564H132.873ZM134.526 24.8781C133.627 25.3784 132.599 25.635 131.285 25.635C128.153 25.635 126.335 23.8306 126.335 20.7291C126.335 17.9972 127.789 15.7366 130.733 15.7366C134.241 15.7366 135.231 18.1462 135.231 21.4473H128.689C128.805 22.9687 129.867 23.8306 131.387 23.8306C132.577 23.8306 133.616 23.3948 134.526 22.8859V24.8781H134.526Z" fill="#25255C"/>
<path d="M151.114 25.2261C150.159 25.4494 149.157 25.635 148.187 25.635C144.041 25.635 141.153 23.5514 141.153 19.2281C141.153 14.8414 143.842 12.3887 148.187 12.3887C149.036 12.3887 150.159 12.5442 151.087 12.9078L150.902 15.0808C149.925 14.5261 149.053 14.3997 148.132 14.3997C145.482 14.3997 143.841 16.4209 143.841 19.042C143.841 21.6501 145.448 23.6105 148.187 23.6105C149.192 23.6105 150.394 23.3954 150.996 23.0801L151.114 25.2261Z" fill="#808284"/>
<path d="M156.651 23.7247C158.545 23.7247 159.035 22.0354 159.035 20.4532C159.035 19.0092 158.275 17.6465 156.651 17.6465C155.057 17.6465 154.286 19.042 154.286 20.4532C154.286 22.0144 154.78 23.7247 156.651 23.7247ZM156.651 15.7361C159.461 15.7361 161.612 17.6314 161.612 20.7474C161.612 23.4637 159.785 25.634 156.651 25.634C153.526 25.634 151.718 23.4637 151.718 20.7474C151.718 17.632 153.857 15.7361 156.651 15.7361Z" fill="#808284"/>
<path d="M171.763 25.4182H169.422V24.1286H169.389C168.635 25.0464 167.567 25.6355 166.294 25.6355C164.043 25.6355 163.076 24.0522 163.076 21.9277V15.9587H165.541V21.0045C165.541 22.166 165.552 23.7203 167.127 23.7203C168.915 23.7203 169.307 21.7884 169.307 20.5892V15.9604H171.765V25.4187L171.763 25.4182Z" fill="#808284"/>
<path d="M173.823 15.9577H176.154V17.2446H176.198C176.969 16.1632 178.013 15.7366 179.301 15.7366C181.54 15.7366 182.516 17.3043 182.516 19.4455V25.4177H180.058V20.3649C180.058 19.2066 180.041 17.647 178.456 17.647C176.68 17.647 176.283 19.5778 176.283 20.7861V25.4182H173.824V15.9577H173.823Z" fill="#808284"/>
<path d="M190.206 17.9391C189.456 17.6884 188.916 17.5394 188.004 17.5394C187.345 17.5394 186.562 17.7745 186.562 18.5863C186.562 20.0835 190.83 19.1361 190.83 22.5486C190.83 24.7484 188.863 25.6339 186.852 25.6339C185.931 25.6339 184.968 25.465 184.071 25.2256L184.221 23.2103C184.992 23.5939 185.803 23.8284 186.647 23.8284C187.268 23.8284 188.268 23.5933 188.268 22.6772C188.268 20.8168 183.989 22.0875 183.989 18.6767C183.989 16.6366 185.771 15.7339 187.698 15.7339C188.844 15.7339 189.603 15.9222 190.375 16.0852L190.206 17.9391Z" fill="#808284"/>
<path d="M198.206 19.7564C198.138 18.5648 197.591 17.5394 196.212 17.5394C194.837 17.5394 194.14 18.4948 194.027 19.7564H198.206ZM199.865 24.8781C198.955 25.3784 197.932 25.635 196.607 25.635C193.496 25.635 191.676 23.8306 191.676 20.7291C191.676 17.9972 193.128 15.7366 196.062 15.7366C199.565 15.7366 200.553 18.1462 200.553 21.4473H194.027C194.14 22.9687 195.2 23.8306 196.72 23.8306C197.927 23.8306 198.937 23.3948 199.865 22.8859V24.8781Z" fill="#808284"/>
<path d="M204.541 11.6453H202.083V25.4183H204.541V11.6453Z" fill="#808284"/>
<path d="M47.4557 2.9519H3.80017V46.6252H47.4557V2.9519Z" fill="#262D66"/>
<path d="M16.2696 12.1387H11.1857V37.4472H16.2696V12.1387Z" fill="#FFFFFE"/>
<path d="M40.0643 37.0711C38.2044 37.5155 36.2268 37.8797 34.2992 37.8797C26.1078 37.8797 20.4041 33.7792 20.4041 25.2225C20.4041 16.5636 25.7059 11.7056 34.2992 11.7056C35.9686 11.7056 38.1818 12.0354 40.0196 12.753L39.6629 17.0338C37.7407 15.9444 36.0035 15.6953 34.1937 15.6953C28.9763 15.6953 25.7075 19.6785 25.7075 24.8707C25.7075 30.0074 28.9037 33.8911 34.3003 33.8911C36.2946 33.8911 38.6461 33.4585 39.8475 32.8356L40.0643 37.0711Z" fill="#FFFFFE"/>
</svg>
