<svg width="150" height="50" viewBox="0 0 150 50" fill="none" xmlns="http://www.w3.org/2000/svg">
<g clip-path="url(#clip0_132_910)">
<path opacity="0.988" fill-rule="evenodd" clip-rule="evenodd" d="M146.549 -0.0368652C146.944 -0.0368652 147.339 -0.0368652 147.733 -0.0368652C148.077 0.0930201 148.386 0.290259 148.657 0.554851C148.861 0.862321 149.02 1.18284 149.138 1.51639C149.138 10.0223 149.138 18.5282 149.138 27.0341C148.714 28.3197 147.826 28.8252 146.475 28.5504C145.728 28.2711 145.271 27.741 145.107 26.9602C145.057 18.5282 145.057 10.0963 145.107 1.66432C145.257 0.812114 145.738 0.245052 146.549 -0.0368652Z" fill="#7855FF"/>
<path opacity="0.986" fill-rule="evenodd" clip-rule="evenodd" d="M36.7119 2.18188C38.273 2.21439 39.1605 3.00335 39.3746 4.54875C39.202 5.95415 38.413 6.74311 37.0077 6.91561C35.6012 6.74186 34.8122 5.9529 34.6409 4.54875C34.7848 3.27128 35.4751 2.48232 36.7119 2.18188Z" fill="#7755FF"/>
<path opacity="0.989" fill-rule="evenodd" clip-rule="evenodd" d="M9.78885 9.50446C12.292 9.32339 14.4 10.137 16.1128 11.9453C16.4393 12.3266 16.7105 12.7458 16.9264 13.2027C18.5952 10.7283 20.9374 9.49565 23.953 9.50446C28.1815 9.61526 30.6471 11.7602 31.3495 15.9394C31.47 19.6851 31.4947 23.4326 31.4235 27.182C31.1259 28.1204 30.4849 28.6135 29.5004 28.6613C28.4235 28.5702 27.7579 28.0032 27.5033 26.9601C27.4787 23.755 27.454 20.5498 27.4294 17.3447C26.886 14.0204 24.9505 12.6768 21.6232 13.3136C19.6059 13.9508 18.4348 15.3191 18.1099 17.4187C18.1079 20.7005 18.0586 23.9796 17.9619 27.2559C17.6672 28.1624 17.0386 28.6308 16.0758 28.6613C14.9142 28.572 14.2362 27.9556 14.0418 26.8121C14.0172 23.607 13.9925 20.4019 13.9678 17.1968C13.5824 14.5922 12.0785 13.2361 9.45601 13.1287C6.64796 13.2986 5.04539 14.7779 4.64831 17.5666C4.64677 20.8244 4.59746 24.0789 4.50038 27.3299C4.08694 28.2827 3.35962 28.7141 2.31843 28.6243C1.43317 28.4786 0.878436 27.9731 0.654231 27.108C0.581199 21.7053 0.605854 16.3059 0.728195 10.9098C1.33584 9.76984 2.26039 9.41237 3.50186 9.8373C4.11114 10.1266 4.46863 10.6074 4.57435 11.2796C4.599 11.7974 4.62366 12.3151 4.64831 12.8329C5.8266 10.894 7.54011 9.78456 9.78885 9.50446Z" fill="#7755FF"/>
<path opacity="0.988" fill-rule="evenodd" clip-rule="evenodd" d="M70.8835 9.50432C75.6076 9.48191 78.6771 11.7255 80.0921 16.2351C80.882 19.3851 80.4382 22.3437 78.7607 25.1108C76.1557 28.4715 72.815 29.5193 68.7385 28.2543C67.2834 27.6196 66.1123 26.6457 65.2252 25.3327C65.2006 28.5625 65.1759 31.7923 65.1512 35.0221C64.688 36.2462 63.8128 36.7023 62.5255 36.3904C61.8671 36.1511 61.4357 35.695 61.2311 35.0221C61.1577 26.9568 61.1824 18.8946 61.3051 10.8357C61.7444 9.98094 62.4471 9.59884 63.4131 9.68923C64.2406 9.80188 64.7706 10.2579 65.0033 11.0576C65.0894 11.6701 65.1387 12.2866 65.1512 12.9067C66.1629 11.3708 67.5559 10.3477 69.3302 9.83716C69.8532 9.70069 70.3709 9.58975 70.8835 9.50432ZM70.3657 12.8327C73.7595 12.8362 75.7444 14.5127 76.3199 17.8623C76.6527 19.9353 76.2333 21.8338 75.0625 23.5576C73.3116 25.3972 71.2282 25.9026 68.8125 25.0738C66.7903 24.0857 65.6192 22.4707 65.2992 20.2292C64.959 17.7431 65.711 15.6598 67.5551 13.9792C68.3945 13.3423 69.3314 12.9601 70.3657 12.8327Z" fill="#7755FF"/>
<path opacity="0.99" fill-rule="evenodd" clip-rule="evenodd" d="M90.7061 9.50452C93.0249 9.33951 95.195 9.82028 97.215 10.9468C99.6706 12.6133 101.014 14.9431 101.246 17.9365C101.296 20.9937 101.296 24.0509 101.246 27.1081C100.774 28.4597 99.8496 28.9158 98.4724 28.4764C97.9058 28.2547 97.5478 27.8479 97.3999 27.256C97.3755 26.7876 97.3504 26.3191 97.326 25.8507C95.9968 27.5822 94.2335 28.5561 92.0375 28.7723C89.07 29.0161 86.5183 28.1161 84.3822 26.0726C82.4228 23.719 81.6092 21.007 81.9413 17.9365C82.5989 13.6299 85.0279 10.9056 89.2268 9.7634C89.7291 9.66747 90.2224 9.58115 90.7061 9.50452ZM91.2239 12.9069C94.5515 12.8999 96.536 14.5271 97.178 17.7885C97.5323 19.8982 97.0634 21.7967 95.7727 23.4838C93.8881 25.3939 91.6817 25.8746 89.1529 24.9261C87.3126 23.973 86.2646 22.4567 86.0094 20.3773C85.6862 18.2417 86.2039 16.3433 87.5626 14.682C88.5708 13.6416 89.7912 13.0499 91.2239 12.9069Z" fill="#7755FF"/>
<path opacity="0.991" fill-rule="evenodd" clip-rule="evenodd" d="M112.304 9.50444C115.881 9.30148 118.679 10.6575 120.699 13.5725C121.413 14.729 121.832 15.9864 121.956 17.3447C122.005 20.5991 122.005 23.8535 121.956 27.108C121.46 28.4219 120.536 28.878 119.182 28.4763C118.591 28.2303 118.209 27.7989 118.036 27.182C117.939 23.807 117.89 20.4293 117.888 17.0488C117.127 14.2436 115.29 12.9739 112.378 13.2396C110.235 13.6569 108.915 14.9266 108.42 17.0488C108.396 20.3033 108.371 23.5577 108.346 26.8121C108.119 28.0759 107.366 28.6799 106.091 28.6243C105.27 28.4934 104.715 28.0374 104.426 27.2559C104.305 24.1276 104.281 20.9964 104.352 17.8624C104.596 14.2033 106.384 11.6269 109.715 10.1331C110.564 9.82322 111.426 9.61368 112.304 9.50444Z" fill="#7855FF"/>
<path opacity="0.988" fill-rule="evenodd" clip-rule="evenodd" d="M132.94 9.50452C136.679 9.29668 139.477 10.8006 141.335 14.0164C142.266 15.8354 142.636 17.7584 142.444 19.7856C142.211 20.2542 141.829 20.5131 141.298 20.5622C137.032 20.5992 132.767 20.6115 128.502 20.5992C128.784 23.3587 130.287 24.9983 133.014 25.5178C135.043 25.8374 136.842 25.3442 138.413 24.0385C138.687 23.7401 138.983 23.4689 139.301 23.2249C140.097 22.7506 140.849 22.8122 141.557 23.4098C142.094 24.1508 142.094 24.8904 141.557 25.6288C139.931 27.3847 137.922 28.4079 135.528 28.6983C133.067 29.0442 130.75 28.6251 128.576 27.4409C126.165 25.8654 124.773 23.6341 124.397 20.7471C123.892 16.9092 125.112 13.7657 128.058 11.3167C129.527 10.2736 131.154 9.66954 132.94 9.50452ZM132.866 12.759C136.188 12.5464 138.161 14.075 138.783 17.3448C135.381 17.3448 131.978 17.3448 128.576 17.3448C129.019 14.8803 130.449 13.3517 132.866 12.759Z" fill="#7755FF"/>
<path opacity="0.987" fill-rule="evenodd" clip-rule="evenodd" d="M36.7119 9.65232C37.8631 9.60979 38.615 10.1275 38.9679 11.2056C39.0172 16.5064 39.0172 21.8071 38.9679 27.1079C38.5374 28.3787 37.6622 28.8594 36.3421 28.5503C35.649 28.3011 35.2176 27.8203 35.0477 27.1079C34.9984 21.8071 34.9984 16.5064 35.0477 11.2056C35.2855 10.3389 35.8402 9.82118 36.7119 9.65232Z" fill="#7755FF"/>
<path opacity="0.991" fill-rule="evenodd" clip-rule="evenodd" d="M43.5166 9.65245C44.2229 9.60511 44.8023 9.85163 45.2548 10.3921C46.8579 12.4016 48.4727 14.3987 50.0994 16.3832C51.858 14.2603 53.6085 12.1277 55.3509 9.98529C56.2841 9.48174 57.1347 9.59268 57.9027 10.3181C58.2811 10.9306 58.3304 11.5717 58.0506 12.2412C56.1538 14.5449 54.2431 16.8378 52.3184 19.1199C54.2152 21.399 56.126 23.6672 58.0506 25.9246C58.5956 27.1004 58.2874 27.9756 57.1261 28.5504C56.5283 28.7256 55.9612 28.6516 55.4249 28.3285C53.6401 26.1751 51.865 24.0178 50.0994 21.8566C48.3232 23.9783 46.5727 26.1232 44.8479 28.2915C43.8761 28.8624 43.0009 28.7391 42.2222 27.9217C41.8135 27.2714 41.7889 26.6057 42.1482 25.9246C44.0729 23.6672 45.9837 21.399 47.8805 19.1199C46.0576 16.9148 44.2209 14.7205 42.3701 12.5371C41.7315 11.5368 41.8672 10.6616 42.7769 9.91132C43.0247 9.80141 43.2713 9.7151 43.5166 9.65245Z" fill="#7755FF"/>
<path opacity="0.995" fill-rule="evenodd" clip-rule="evenodd" d="M7.71798 49.9631C7.10161 49.9631 6.48524 49.9631 5.86887 49.9631C2.81086 49.3212 0.961748 47.4721 0.321533 44.4157C0.321533 43.7747 0.321533 43.1337 0.321533 42.4926C1.12048 39.0685 3.27778 37.2194 6.79343 36.9453C10.2768 37.1991 12.4218 39.0235 13.2283 42.4187C13.544 45.6712 12.2496 48.0258 9.3452 49.4823C8.80534 49.6831 8.26295 49.8434 7.71798 49.9631Z" fill="#7755FF"/>
<path opacity="0.991" fill-rule="evenodd" clip-rule="evenodd" d="M29.9813 39.5339C32.3703 39.5624 33.788 40.7458 34.2343 43.0842C34.2794 45.3557 33.2069 46.7733 31.0168 47.3372C28.597 47.5294 27.0807 46.4569 26.468 44.1197C26.3187 41.5703 27.4898 40.0417 29.9813 39.5339Z" fill="#7755FF"/>
<path opacity="0.985" fill-rule="evenodd" clip-rule="evenodd" d="M49.9515 41.0874C51.1952 41.0738 52.0458 41.6409 52.5033 42.7886C52.7714 44.2869 52.1921 45.2854 50.7651 45.7841C49.3021 45.9718 48.3529 45.3677 47.9175 43.972C47.7593 42.413 48.4373 41.4515 49.9515 41.0874Z" fill="#7755FF"/>
</g>
<defs>
<clipPath id="clip0_132_910">
<rect width="148.817" height="50" fill="white" transform="translate(0.358398)"/>
</clipPath>
</defs>
</svg>
