<svg width="217" height="50" viewBox="0 0 217 50" fill="none" xmlns="http://www.w3.org/2000/svg">
<path fill-rule="evenodd" clip-rule="evenodd" d="M26.8437 29.2544C25.1251 29.1817 18.8552 32.4497 18.8552 34.4347C18.8552 38.4048 23.5515 42.0359 29.0708 42.0602C38.2938 42.0602 42.1671 35.3788 42.1671 29.4964C42.1671 24.3886 38.3907 20.7333 32.8472 20.2007C27.8604 19.7407 21.6148 19.0629 21.6148 15.5044C21.6148 14.2456 22.5831 13.1805 23.8178 13.1805C25.9808 13.1805 27.8091 14.127 29.6803 15.0957C31.6413 16.1109 33.6495 17.1505 36.1394 17.1505C40.1579 17.1505 43.1838 8 40.8599 8C40.4539 8 40.1057 8.21236 39.6875 8.46747C39.0586 8.85112 38.2711 9.33144 36.8898 9.33144C35.3336 9.33144 34.0442 8.9736 32.8023 8.62894C31.6487 8.30878 30.5361 8 29.2887 8C23.7451 8 19.0973 12.5026 19.0974 18.0461C19.0974 25.018 24.7135 27.003 31.2253 29.0364C34.4934 30.0532 37.4467 31.6509 37.4467 35.0157C37.4467 37.5575 35.1712 39.4699 32.6293 39.4699C27.4732 39.4699 28.0784 34.6768 28.5383 31.2151C28.6835 29.9563 27.8363 29.2785 26.8437 29.2544ZM53.8097 12.309C53.8097 11.849 53.5676 11.5101 53.1803 11.5101C52.6639 11.5101 51.4993 12.548 50.0735 13.8187C47.8231 15.8241 44.9222 18.4093 42.8921 18.4093V20.1039H43.9088C45.4346 20.1039 45.4342 21.1839 45.4339 22.1647C45.4339 22.1798 45.4338 22.1949 45.4338 22.2099V32.8129C45.4338 37.3396 46.3296 42.0602 52.672 42.0602C54.2697 42.0602 56.1095 41.2856 56.2789 40.0993C56.1626 40.0744 56.0549 40.0638 55.9528 40.0537C55.7573 40.0343 55.5823 40.017 55.4074 39.9057C53.7822 38.9039 53.795 36.4482 53.8075 34.0453C53.8086 33.8355 53.8097 33.6261 53.8097 33.418V20.0555H56.642V18.4093H53.8097V12.309ZM67.9403 22.3068C67.9403 20.4186 68.2066 19.305 69.1022 18.4094L57.991 18.4335C58.8867 19.3293 59.1529 20.4428 59.1529 22.331V27.9956L59.1772 34.3138C59.1772 37.7512 60.0244 42.0844 64.8417 42.0844C68.5699 42.0844 70.1164 40.0222 71.1384 38.6595C71.6427 37.9871 72.0192 37.4849 72.4672 37.4849C72.6124 37.4849 72.7092 37.4849 72.7092 38.2838V38.8405C72.7092 40.5109 73.0966 41.5761 74.5248 41.5761H82.6344C81.7386 40.6803 81.4724 39.5668 81.4724 37.6786V22.331C81.4724 20.4428 81.7386 19.3293 82.6344 18.4335H71.5714C72.4672 19.3293 72.7334 20.4428 72.7334 22.331V31.312C72.7334 34.9916 71.3536 36.0083 69.8285 36.0083C68.376 36.0083 67.9403 34.58 67.9403 33.055V22.3068ZM104.414 21.9678C104.414 20.3701 100.081 17.9252 96.5225 17.9252C88.2435 17.9252 84.3461 23.735 84.3461 30.6341C84.3461 37.1459 90.1075 42.0602 96.4499 42.0602C102.792 42.0602 105.6 37.5817 105.6 35.0641C105.6 34.4832 105.31 34.3621 105.068 34.3621C104.853 34.3621 104.658 34.5348 104.391 34.7707C103.815 35.279 102.908 36.0808 100.759 36.0808C95.8931 36.0808 87.9046 30.4405 87.9046 25.0422C87.9046 23.0572 88.9455 21.6047 90.8579 21.6047C93.0124 21.6047 95.1184 23.2993 96.4741 25.2116C97 25.9661 97.1965 26.6289 97.3416 27.1182C97.5038 27.6651 97.6018 27.9955 98.0234 27.9955C98.4471 27.9955 99.7623 26.8013 100.987 25.6887C101.232 25.4666 101.473 25.2477 101.703 25.0422C101.897 24.868 102.1 24.6912 102.304 24.5136C103.347 23.6054 104.414 22.6765 104.414 21.9678ZM133.587 11.6355C133.476 11.683 133.283 11.7661 133.283 12.0427C133.283 12.3497 133.542 12.4286 133.685 12.4722C133.722 12.4837 133.752 12.4927 133.767 12.5027C135.249 12.9069 135.211 14.4153 135.198 14.9406C135.197 14.9815 135.196 15.0165 135.196 15.0445V38.8405C135.196 40.5351 135.583 41.5518 137.011 41.5518H145.12C144.225 40.6562 143.959 39.5426 143.959 37.6544V9.28304C143.959 8.62949 143.935 8.00009 142.966 8.00009C141.115 8.00009 135.478 10.7222 133.845 11.5111C133.77 11.5473 133.703 11.5794 133.646 11.607C133.633 11.6159 133.612 11.6248 133.587 11.6355ZM160.509 23.0813C160.509 23.6623 160.292 24.3401 159.323 24.5338C153.126 25.8169 146.832 29.3512 146.832 36.4197C146.832 39.591 149.519 42.0602 152.715 42.0602C155.779 42.0602 157.262 40.7647 158.303 39.8557C158.866 39.3643 159.299 38.9857 159.783 38.9857C160.292 38.9857 160.558 39.591 160.655 40.1477C160.824 41.0434 161.381 41.576 162.374 41.576H170.483C169.588 40.6803 169.321 39.5667 169.321 37.6785V27.8503C169.321 23.1056 165.739 17.9252 158.137 17.9252C154.627 17.9252 151.166 18.4093 148.914 20.5637C148.2 21.2172 148.226 22.1805 148.251 23.1343C148.256 23.3113 148.261 23.488 148.261 23.6623V25.4779C148.261 26.0589 148.745 26.5431 149.277 26.5431C150.117 26.5431 150.977 25.3953 151.991 24.0426C153.433 22.1199 155.184 19.7833 157.628 19.7407C160.073 19.7165 160.509 21.6289 160.509 23.0813ZM157.871 37.848C155.426 37.848 154.723 35.6209 154.723 33.297C154.723 29.2301 157.168 26.6883 159.348 26.6641C160.243 26.6641 160.533 27.2451 160.533 28.7218C160.533 29.7325 160.54 30.5459 160.546 31.364C160.552 32.1918 160.558 33.0246 160.558 34.0716C160.558 36.2261 159.662 37.848 157.871 37.848ZM173.334 11.0366C172.782 11.2943 172.346 11.4983 172.09 11.607C172.086 11.6084 172.082 11.6098 172.076 11.6115C171.986 11.64 171.726 11.7224 171.703 12.0427C171.703 12.3975 172.028 12.4679 172.157 12.4959C172.169 12.4984 172.179 12.5006 172.187 12.5027C173.646 13.0044 173.624 14.4725 173.616 14.9649C173.616 14.9953 173.615 15.022 173.615 15.0444V37.6786C173.615 39.5668 173.349 40.6803 172.454 41.5761H180.563C181.991 41.5761 182.378 40.5593 182.378 38.8648V38.5259C182.378 38.0417 182.741 38.2838 182.984 38.6469C184.775 41.455 186.76 42.0602 188.479 42.0602C194.41 42.0602 197.823 36.8798 197.823 30.4647C197.823 24.5097 194.991 17.9252 188.479 17.9252C185.909 17.9252 184.536 19.2165 183.72 19.9841C183.375 20.3087 183.129 20.5396 182.935 20.5396C182.693 20.5396 182.524 20.4912 182.403 20.2007V9.28304C182.403 8.62949 182.378 8.00009 181.41 8.00009C179.832 8.00009 175.606 9.97489 173.334 11.0366ZM189.108 29.5206C189.108 33.3696 188.987 37.9206 185.308 37.9206C182.669 37.9206 182.403 34.5074 182.403 32.6918V26.2526C182.403 24.5581 182.717 21.3869 184.775 21.3869C188.455 21.3869 189.108 25.9137 189.108 29.5206ZM107.624 25.0105C107.624 21.0974 110.796 17.9253 114.709 17.9253H124.546C128.459 17.9253 131.631 21.0974 131.631 25.0105V34.9993C131.631 38.9123 128.459 42.0845 124.546 42.0845H114.709C110.796 42.0845 107.624 38.9123 107.624 34.9993V25.0105ZM110.186 24.724C110.186 22.3893 112.079 20.4965 114.413 20.4965H115.815C118.15 20.4965 120.042 22.3893 120.042 24.724V35.2857C120.042 37.6204 118.15 39.5131 115.815 39.5131H114.413C112.079 39.5131 110.186 37.6204 110.186 35.2857V24.724Z" fill="#010003"/>
</svg>
