<svg width="119" height="50" viewBox="0 0 119 50" fill="none" xmlns="http://www.w3.org/2000/svg">
<g clip-path="url(#clip0_132_971)">
<path opacity="0.99" fill-rule="evenodd" clip-rule="evenodd" d="M7.49935 -0.0307617C7.62205 -0.0307617 7.74475 -0.0307617 7.86745 -0.0307617C7.9288 2.3819 7.9288 4.79499 7.86745 7.2085C9.05353 7.2085 10.2397 7.2085 11.4257 7.2085C11.4257 9.00807 11.4257 10.8077 11.4257 12.6073C10.2397 12.6073 9.05353 12.6073 7.86745 12.6073C7.91285 15.8994 7.9231 19.1919 7.89813 22.4846C8.03641 24.7265 9.21224 25.657 11.4257 25.276C12.1377 25.0733 12.7921 24.7564 13.3889 24.3251C14.0685 25.8822 14.9887 27.2729 16.1497 28.4968C16.2161 28.5499 16.2263 28.6113 16.1803 28.6809C14.5227 30.0862 12.6106 30.9348 10.4441 31.2269C7.68402 31.4451 5.25046 30.668 3.14353 28.8956C1.76943 27.4623 1.03324 25.7548 0.934937 23.7729C0.934937 16.0838 0.934937 8.39458 0.934937 0.705435C3.132 0.487843 5.32014 0.242444 7.49935 -0.0307617Z" fill="#212F3F"/>
<path opacity="0.99" fill-rule="evenodd" clip-rule="evenodd" d="M25.352 6.59497C30.7235 6.707 34.5783 9.16098 36.9165 13.9569C38.4289 17.8117 38.2244 21.5744 36.303 25.2453C34.1327 28.8119 30.9527 30.8058 26.7631 31.2269C22.1714 31.5631 18.4598 29.9373 15.6281 26.3496C13.5284 23.2746 12.8331 19.9004 13.5422 16.2269C14.4941 12.2087 16.8357 9.33552 20.5668 7.60724C22.1106 6.98976 23.7057 6.65233 25.352 6.59497ZM25.6588 12.6072C28.4244 12.7042 30.3773 14.013 31.5177 16.5336C32.354 18.776 32.0882 20.8824 30.7201 22.8526C28.3227 25.5649 25.5108 26.0864 22.2846 24.4171C20.3008 23.14 19.2783 21.3098 19.2171 18.9263C19.4123 15.5711 21.1506 13.5159 24.4318 12.7606C24.8501 12.7108 25.2591 12.6596 25.6588 12.6072Z" fill="#212F3F"/>
<path opacity="0.989" fill-rule="evenodd" clip-rule="evenodd" d="M48.9717 6.59513C53.1556 6.53335 56.6832 8.00574 59.5545 11.0123C61.8159 13.7777 62.7361 16.9474 62.3153 20.5215C61.8556 24.4812 59.9844 27.5589 56.7018 29.7546C54.4843 31.0686 52.0917 31.5594 49.5238 31.227C48.4549 31.1343 47.3914 31.0014 46.3337 30.8283C45.993 28.2698 45.6556 25.7135 45.3214 23.1595C47.377 25.3681 49.8207 25.9305 52.6527 24.8467C54.6376 23.821 55.793 22.1953 56.1189 19.9694C56.4114 17.6154 55.7059 15.6215 54.0024 13.9878C52.1928 12.6467 50.2091 12.3194 48.0514 13.0062C47.7168 13.1428 47.3897 13.2962 47.0699 13.4663C45.7055 11.764 44.3047 10.0872 42.8674 8.43562C42.8252 8.38458 42.8354 8.34372 42.8981 8.31292C44.7943 7.2647 46.8189 6.69212 48.9717 6.59513Z" fill="#212F3F"/>
<path opacity="0.989" fill-rule="evenodd" clip-rule="evenodd" d="M75.5361 6.59497C79.4434 6.63706 82.6747 8.11963 85.2293 11.0428C85.1717 11.1621 85.0901 11.2644 84.9839 11.3496C83.4827 12.4326 82.0207 13.5676 80.5974 14.7545C78.6256 12.8684 76.325 12.2856 73.6956 13.006C71.5238 14.1669 70.2661 15.9767 69.9226 18.4355C69.7692 20.6554 70.495 22.5266 72.1005 24.049C74.0778 25.5225 76.2042 25.7679 78.4809 24.7852C79.2545 24.4243 79.96 23.9642 80.5974 23.4048C82.1029 24.6448 83.6269 25.8617 85.168 27.0551C82.0539 30.329 78.2502 31.6787 73.7569 31.1042C69.5091 30.1885 66.4312 27.7856 64.5238 23.8956C63.0391 19.9896 63.3048 16.2064 65.3213 12.5459C67.7048 8.83307 71.1097 6.84945 75.5361 6.59497Z" fill="#00B14E"/>
<path opacity="0.988" fill-rule="evenodd" clip-rule="evenodd" d="M85.7202 6.59506C88.0521 6.57463 90.3834 6.59506 92.7141 6.65641C94.5877 11.6738 96.4791 16.684 98.3889 21.6871C100.372 16.6767 102.305 11.646 104.186 6.59506C106.518 6.59506 108.849 6.59506 111.18 6.59506C107.876 14.8315 104.583 23.0728 101.303 31.319C99.3662 31.3392 97.4337 31.3187 95.5055 31.2576C92.273 23.0224 89.0116 14.8016 85.7202 6.59506Z" fill="#00B14E"/>
<path opacity="0.914" fill-rule="evenodd" clip-rule="evenodd" d="M118.788 8.6811C118.788 9.02877 118.788 9.37638 118.788 9.72405C118.077 11.5872 116.789 12.1496 114.923 11.4112C113.93 10.7445 113.531 9.81405 113.726 8.61975C114.319 6.93791 115.475 6.3346 117.193 6.80994C118.034 7.17576 118.566 7.79951 118.788 8.6811ZM115.904 7.27006C117.497 7.27779 118.223 8.07534 118.082 9.6627C117.693 10.7932 116.905 11.2534 115.72 11.0431C114.71 10.6685 114.25 9.94251 114.34 8.86515C114.545 8.01564 115.067 7.48392 115.904 7.27006Z" fill="#212F3F"/>
<path opacity="0.829" fill-rule="evenodd" clip-rule="evenodd" d="M115.966 8.00602C116.569 7.8681 116.998 8.07258 117.254 8.61952C117.159 8.7389 117.037 8.76958 116.886 8.71154C116.624 8.28534 116.277 8.20356 115.843 8.46614C115.566 8.86817 115.536 9.28743 115.751 9.72381C116.08 10.1041 116.428 10.1245 116.794 9.78516C116.856 9.6916 116.886 9.58933 116.886 9.47841C117.145 9.43737 117.258 9.53964 117.223 9.78516C116.884 10.3334 116.403 10.4868 115.782 10.2453C115.401 9.98387 115.217 9.61577 115.229 9.14099C115.249 8.60283 115.494 8.22448 115.966 8.00602Z" fill="#212F3F"/>
<path opacity="0.989" fill-rule="evenodd" clip-rule="evenodd" d="M42.3459 49.9694C42.305 49.9694 42.2642 49.9694 42.2232 49.9694C40.5683 47.721 38.9119 45.4715 37.2539 43.2209C38.4428 35.0114 39.6289 26.8007 40.8122 18.589C39.9205 17.0614 39.0207 15.5379 38.1128 14.0185C39.5265 12.3594 40.9171 10.6826 42.2846 8.98779C43.7524 10.6292 45.1634 12.3163 46.5177 14.0491C45.6067 15.5641 44.7069 17.0875 43.8183 18.6197C44.9286 26.786 46.0943 34.9455 47.3153 43.0982C47.3143 43.2291 47.2837 43.3518 47.2232 43.4663C45.5842 45.6264 43.9584 47.7942 42.3459 49.9694Z" fill="#212F3F"/>
</g>
<defs>
<clipPath id="clip0_132_971">
<rect width="117.853" height="50" fill="white" transform="translate(0.965576)"/>
</clipPath>
</defs>
</svg>
