<svg width="71" height="50" viewBox="0 0 71 50" fill="none" xmlns="http://www.w3.org/2000/svg">
<g clip-path="url(#clip0_132_948)">
<path opacity="0.998" fill-rule="evenodd" clip-rule="evenodd" d="M16.155 -0.0136719C22.1758 -0.0136719 28.1966 -0.0136719 34.2174 -0.0136719C34.1509 3.05239 32.9011 5.50176 30.4681 7.33444C28.0866 8.96183 25.4959 9.40882 22.6958 8.67544C19.8251 7.77519 17.8318 5.9279 16.7161 3.13356C16.346 2.11721 16.159 1.06813 16.155 -0.0136719Z" fill="#03353C"/>
<path opacity="0.997" fill-rule="evenodd" clip-rule="evenodd" d="M37.1733 -0.0136719C43.1941 -0.0136719 49.2149 -0.0136719 55.2357 -0.0136719C49.2373 7.25702 43.2256 14.5185 37.2007 21.7707C37.1733 14.5093 37.1643 7.2478 37.1733 -0.0136719Z" fill="#03353C"/>
<path opacity="0.997" fill-rule="evenodd" clip-rule="evenodd" d="M34.1901 7.78589C34.2174 15.0519 34.2265 22.3225 34.2174 29.5976C28.1966 29.6023 22.1758 29.5976 16.155 29.5839C22.1636 22.3145 28.1753 15.0485 34.1901 7.78589Z" fill="#03353C"/>
<path opacity="0.996" fill-rule="evenodd" clip-rule="evenodd" d="M45.4927 20.5664C48.5357 20.4078 51.0672 21.4569 53.0872 23.7136C54.5034 25.4118 55.2193 27.3732 55.2355 29.5976C49.2147 29.5976 43.1939 29.5976 37.1731 29.5976C37.238 26.5716 38.4602 24.1405 40.8403 22.3042C42.2325 21.3027 43.7834 20.7234 45.4927 20.5664Z" fill="#03353C"/>
<path opacity="0.983" fill-rule="evenodd" clip-rule="evenodd" d="M70.7255 49.7674C70.7255 49.8038 70.7255 49.8405 70.7255 49.8769C70.0047 49.8815 69.2841 49.8769 68.5635 49.8632C67.6202 48.5373 66.6806 47.2099 65.7447 45.8813C65.2534 46.4229 64.7562 46.9612 64.2532 47.4959C64.2395 48.2896 64.2348 49.0832 64.2395 49.8769C63.5827 49.8769 62.9259 49.8769 62.269 49.8769C62.269 45.4524 62.269 41.0282 62.269 36.6038C62.9259 36.6038 63.5827 36.6038 64.2395 36.6038C64.2348 39.4773 64.2395 42.3509 64.2532 45.2244C65.5988 43.7513 66.9442 42.2778 68.2898 40.8046C69.0838 40.7819 69.8774 40.7863 70.6708 40.8183C69.4989 42.1133 68.3221 43.404 67.1404 44.6908C68.3394 46.3824 69.5345 48.0748 70.7255 49.7674Z" fill="#03353C"/>
<path opacity="0.992" fill-rule="evenodd" clip-rule="evenodd" d="M36.4069 49.9863C35.7958 49.9863 35.1844 49.9863 34.5733 49.9863C32.6773 49.4907 31.5051 48.2865 31.0566 46.3739C30.7588 44.8101 31.0963 43.4053 32.0692 42.1593C33.2085 40.9404 34.6086 40.4431 36.27 40.6678C37.1734 40.8342 37.926 41.2584 38.5278 41.9404C38.5415 40.1705 38.5462 38.4009 38.5415 36.6311C39.1893 36.6311 39.8368 36.6311 40.4846 36.6311C40.4846 41.0463 40.4846 45.4617 40.4846 49.8769C39.8368 49.8769 39.1893 49.8769 38.5415 49.8769C38.5462 49.4754 38.5415 49.0739 38.5278 48.6727C37.9616 49.3369 37.2544 49.7748 36.4069 49.9863ZM35.4217 42.5424C36.845 42.4622 37.8532 43.0643 38.4457 44.3487C38.8412 45.5816 38.5812 46.6533 37.6658 47.5643C36.5968 48.3892 35.4657 48.4806 34.2722 47.838C33.1362 47.0391 32.7211 45.9581 33.027 44.595C33.4307 43.4472 34.229 42.763 35.4217 42.5424Z" fill="#03353C"/>
<path opacity="0.99" fill-rule="evenodd" clip-rule="evenodd" d="M16.0458 49.9862C15.2795 49.9862 14.5132 49.9862 13.7469 49.9862C11.5281 49.5144 10.2555 48.1551 9.92918 45.9085C9.74514 43.8455 10.5251 42.2719 12.2691 41.1876C13.6062 40.5103 14.9837 40.4191 16.4015 40.9139C17.7324 41.4878 18.5853 42.4777 18.9604 43.8833C19.1464 44.6011 19.224 45.331 19.193 46.0727C16.8303 46.0727 14.4676 46.0727 12.1049 46.0727C12.373 47.3485 13.1575 48.0557 14.4585 48.1936C15.5579 48.3045 16.5157 47.9944 17.332 47.2632C17.3631 47.2426 17.3905 47.2473 17.4141 47.2768C17.816 47.7016 18.2128 48.1301 18.6046 48.5631C18.6229 48.5814 18.6229 48.5995 18.6046 48.6178C17.892 49.3368 17.0391 49.793 16.0458 49.9862ZM14.4037 42.4328C15.8846 42.3814 16.7512 43.0839 17.0036 44.5401C15.3707 44.5401 13.7378 44.5401 12.1049 44.5401C12.3564 43.2744 13.1227 42.5719 14.4037 42.4328Z" fill="#03353C"/>
<path opacity="0.989" fill-rule="evenodd" clip-rule="evenodd" d="M24.8853 40.5993C26.0177 40.5492 27.0394 40.8549 27.9504 41.5161C28.8486 42.2747 29.3185 43.2462 29.3598 44.4307C29.3735 46.246 29.3781 48.0615 29.3735 49.8768C28.7076 49.8768 28.0416 49.8768 27.3757 49.8768C27.3802 48.0705 27.3757 46.2643 27.362 44.4581C27.2388 43.1535 26.5227 42.4876 25.2137 42.4603C24.4085 42.4285 23.7653 42.7295 23.2843 43.3634C23.095 43.6849 22.9764 44.0314 22.9285 44.4033C22.9148 46.2279 22.9102 48.0522 22.9148 49.8768C22.2489 49.8768 21.5829 49.8768 20.917 49.8768C20.9124 47.952 20.917 46.027 20.9307 44.1023C21.2245 42.2211 22.3055 41.0853 24.1737 40.6951C24.4138 40.654 24.651 40.622 24.8853 40.5993Z" fill="#02353C"/>
<path opacity="0.99" fill-rule="evenodd" clip-rule="evenodd" d="M48.476 49.9863C47.7007 49.9863 46.9251 49.9863 46.1498 49.9863C43.9309 49.5145 42.6583 48.1552 42.3321 45.9086C42.1517 44.0854 42.7765 42.6122 44.2067 41.4888C45.5203 40.6065 46.9434 40.3785 48.476 40.8046C49.9484 41.292 50.9018 42.2816 51.3359 43.774C51.5461 44.5257 51.6328 45.292 51.5959 46.0728C49.2333 46.0728 46.8704 46.0728 44.5078 46.0728C44.7201 47.1839 45.3769 47.8725 46.4782 48.139C47.713 48.3802 48.7984 48.0881 49.7349 47.2633C49.7661 47.2428 49.7935 47.2474 49.817 47.277C50.2286 47.7066 50.6298 48.1445 51.0212 48.5906C50.3277 49.3342 49.4793 49.7994 48.476 49.9863ZM46.8613 42.433C48.314 42.4081 49.1624 43.1103 49.4065 44.5403C47.7735 44.5403 46.1408 44.5403 44.5078 44.5403C44.6613 43.5799 45.1903 42.9275 46.0951 42.5835C46.3501 42.5121 46.6057 42.462 46.8613 42.433Z" fill="#03353C"/>
<path opacity="0.989" fill-rule="evenodd" clip-rule="evenodd" d="M57.8082 49.9864C57.1331 49.9864 56.4582 49.9864 55.783 49.9864C54.5616 49.7748 53.6082 49.1547 52.9232 48.1254C52.8859 48.0608 52.8586 47.9971 52.8411 47.9338C53.4182 47.6293 53.9973 47.3282 54.5789 47.0307C55.4073 48.239 56.5203 48.6085 57.9177 48.1391C58.3892 47.8879 58.5945 47.5004 58.5335 46.976C58.4782 46.8386 58.3917 46.7245 58.2735 46.6339C58.1232 46.5258 57.959 46.4437 57.7809 46.3876C57.0162 46.1982 56.2499 46.0157 55.482 45.8403C54.878 45.6889 54.3397 45.4152 53.8673 45.0192C53.3526 44.4694 53.1383 43.8173 53.2242 43.0625C53.4185 42.0652 53.9795 41.3583 54.9073 40.9415C55.4888 40.6963 56.0956 40.5731 56.7272 40.5721C57.6052 40.569 58.4306 40.7743 59.204 41.1878C59.6993 41.4779 60.1005 41.8654 60.4081 42.3509C59.8753 42.6585 59.337 42.9596 58.7934 43.254C58.0118 42.2877 57.0266 42.0004 55.8378 42.392C55.3564 42.6115 55.1511 42.9809 55.222 43.5004C55.2981 43.6766 55.4213 43.8091 55.5915 43.8972C55.7926 44.0006 56.0025 44.0827 56.2209 44.1435C56.8312 44.2929 57.4426 44.4388 58.0545 44.5814C58.731 44.728 59.3331 45.0201 59.8608 45.4571C60.3865 46.0034 60.6008 46.6555 60.5039 47.4139C60.2814 48.5671 59.6199 49.3564 58.5198 49.7811C58.2817 49.8591 58.0444 49.9276 57.8082 49.9864Z" fill="#03353C"/>
<path opacity="0.991" fill-rule="evenodd" clip-rule="evenodd" d="M0.665283 49.9043C0.665283 49.2932 0.665283 48.6818 0.665283 48.0707C2.48504 46.2554 4.29128 44.4265 6.084 42.5835C4.31427 42.5699 2.54453 42.5652 0.774752 42.5699C0.774752 41.9861 0.774752 41.4021 0.774752 40.8184C3.41113 40.8184 6.04752 40.8184 8.68389 40.8184C8.68846 41.4204 8.68389 42.0225 8.67021 42.6246C6.85628 44.4601 5.04547 46.2984 3.23781 48.1391C5.07139 48.1528 6.90499 48.1574 8.73863 48.1528C8.73863 48.7365 8.73863 49.3205 8.73863 49.9043C6.04752 49.9043 3.3564 49.9043 0.665283 49.9043Z" fill="#03353C"/>
</g>
<defs>
<clipPath id="clip0_132_948">
<rect width="70.0602" height="50" fill="white" transform="translate(0.678955)"/>
</clipPath>
</defs>
</svg>
